<svg width="400" height="300" viewBox="0 0 400 300" fill="none" xmlns="http://www.w3.org/2000/svg">
<g id="backend 1">
<path id="Vector" d="M208.93 283.26L358.68 200C359.763 199.403 360.67 198.532 361.311 197.474C361.952 196.417 362.304 195.209 362.331 193.973C362.358 192.736 362.06 191.514 361.467 190.429C360.874 189.344 360.006 188.434 358.95 187.79L213.78 98.7C212.676 98.0222 211.41 97.6544 210.115 97.635C208.82 97.6156 207.544 97.9455 206.42 98.59L48 189.66C46.9193 190.277 46.021 191.17 45.3962 192.246C44.7714 193.323 44.4424 194.545 44.4424 195.79C44.4424 197.035 44.7714 198.257 45.3962 199.334C46.021 200.41 46.9193 201.303 48 201.92L189.25 283.11C192.239 284.829 195.622 285.747 199.07 285.773C202.519 285.799 205.915 284.934 208.93 283.26Z" fill="#B4EE73"/>
<path id="Vector_2" opacity="0.32" d="M98.18 224.1C103.39 227.24 108.53 230.5 113.7 233.71L219.88 168.79C206.63 159.9 196.71 157.44 185.24 146.46L78.48 212.34C84.61 216.87 91.64 220.17 98.18 224.1Z" fill="url(#paint0_linear)"/>
<path id="Vector_3" d="M198.49 154.33L217.41 163.33C218.119 163.666 218.723 164.189 219.156 164.843C219.588 165.497 219.834 166.257 219.866 167.041C219.898 167.825 219.715 168.603 219.337 169.29C218.958 169.977 218.399 170.548 217.72 170.94L172.87 196.86C171.901 197.422 170.753 197.591 169.663 197.332C168.573 197.073 167.624 196.407 167.01 195.47L156.11 178.68" fill="#56403D"/>
<path id="Vector_4" d="M104.34 105.77L255.25 19.65C256.281 19.0559 257.449 18.7423 258.639 18.7404C259.829 18.7385 260.999 19.0483 262.031 19.6391C263.064 20.2298 263.924 21.0808 264.526 22.1074C265.127 23.134 265.449 24.3002 265.46 25.49V115.08C265.459 116.068 265.196 117.037 264.699 117.891C264.202 118.745 263.488 119.451 262.63 119.94L101.77 211.94C101.217 212.26 100.59 212.43 99.9514 212.432C99.3125 212.434 98.6844 212.268 98.1296 211.951C97.5749 211.635 97.1131 211.178 96.7903 210.626C96.4674 210.075 96.2949 209.449 96.29 208.81V119.57C96.2938 116.764 97.0406 114.009 98.4546 111.585C99.8685 109.161 101.899 107.155 104.34 105.77V105.77Z" fill="#55B8F3"/>
<path id="Vector_5" d="M255.24 26.42L108.92 109.82C107.362 110.704 106.066 111.985 105.163 113.532C104.26 115.08 103.783 116.839 103.78 118.63V185.79C103.784 186.437 103.958 187.072 104.285 187.631C104.611 188.191 105.079 188.654 105.641 188.976C106.202 189.298 106.839 189.467 107.486 189.466C108.134 189.465 108.769 189.294 109.33 188.97L258.56 104.14C259.115 103.825 259.578 103.369 259.899 102.817C260.22 102.265 260.39 101.638 260.39 101V29.37C260.384 28.7701 260.221 28.1822 259.918 27.6647C259.614 27.1472 259.181 26.718 258.66 26.4198C258.139 26.1216 257.55 25.9647 256.95 25.9648C256.35 25.9648 255.761 26.1217 255.24 26.42V26.42Z" fill="#172D51"/>
<path id="Vector_6" d="M191.23 149C191.199 149.617 191.347 150.229 191.656 150.764C191.964 151.299 192.421 151.734 192.97 152.016C193.519 152.298 194.138 152.415 194.753 152.354C195.368 152.293 195.951 152.056 196.435 151.672C196.918 151.287 197.28 150.772 197.477 150.186C197.675 149.601 197.699 148.972 197.548 148.373C197.396 147.774 197.076 147.232 196.624 146.811C196.172 146.39 195.608 146.109 195 146C194.555 145.949 194.105 145.985 193.674 146.108C193.244 146.231 192.842 146.438 192.492 146.717C192.142 146.996 191.85 147.341 191.633 147.733C191.417 148.124 191.28 148.555 191.23 149V149Z" fill="#AB643C"/>
<path id="Vector_7" d="M114.87 113.58C115.754 113.58 116.47 112.814 116.47 111.87C116.47 110.926 115.754 110.16 114.87 110.16C113.986 110.16 113.27 110.926 113.27 111.87C113.27 112.814 113.986 113.58 114.87 113.58Z" fill="#659FE4"/>
<path id="Vector_8" d="M119.95 111.09C120.834 111.09 121.55 110.324 121.55 109.38C121.55 108.436 120.834 107.67 119.95 107.67C119.066 107.67 118.35 108.436 118.35 109.38C118.35 110.324 119.066 111.09 119.95 111.09Z" fill="#C5E9FF"/>
<path id="Vector_9" d="M217.06 75.64V79.74L251.31 59.84V55.84L217.06 75.64Z" fill="#F7931E"/>
<path id="Vector_10" d="M213.66 77.61L117.11 133.43V137.83L213.66 81.72V77.61Z" fill="#00A99D"/>
<path id="Vector_11" d="M132.21 138.02L117.11 146.75V151.16L132.21 142.38V138.02Z" fill="#8CC63F"/>
<path id="Vector_12" d="M135.62 136.05V140.4L189.68 108.98V104.8L135.62 136.05Z" fill="#F7931E"/>
<path id="Vector_13" d="M193.09 102.83V107L228.45 86.45V82.39L193.09 102.83Z" fill="#F15A24"/>
<path id="Vector_14" d="M231.85 80.42V84.47L251.31 73.17V69.17L231.85 80.42Z" fill="#8CC63F"/>
<path id="Vector_15" d="M214.74 103.53L118.2 159.35V163.75L214.74 107.64V103.53Z" fill="#00A99D"/>
<path id="Vector_16" d="M232.45 211.17L258.45 195.73C258.978 195.417 259.581 195.251 260.195 195.251C260.809 195.251 261.412 195.417 261.94 195.73L282.49 207.93C283.004 208.236 283.428 208.672 283.721 209.193C284.014 209.715 284.164 210.304 284.158 210.902C284.152 211.5 283.99 212.086 283.686 212.602C283.383 213.117 282.95 213.544 282.43 213.84L257.6 227.93C257.087 228.219 256.509 228.371 255.92 228.371C255.331 228.371 254.753 228.219 254.24 227.93L232.53 215.72C232.127 215.496 231.79 215.17 231.553 214.775C231.316 214.379 231.187 213.929 231.179 213.468C231.171 213.007 231.284 212.552 231.507 212.149C231.73 211.746 232.055 211.408 232.45 211.17V211.17Z" fill="#146666"/>
<path id="Vector_17" d="M231.16 213.41L231.17 209.15L234.1 210.07L233.24 213.5L231.16 213.41Z" fill="#146666"/>
<path id="Vector_18" d="M284.14 210.59V206.61L281.66 207.77L282.83 210.07L284.14 210.59Z" fill="#146666"/>
<path id="Vector_19" d="M232.45 206.89L258.45 191.45C258.978 191.137 259.581 190.971 260.195 190.971C260.809 190.971 261.412 191.137 261.94 191.45L282.49 203.65C283.004 203.956 283.428 204.392 283.721 204.913C284.014 205.435 284.164 206.024 284.158 206.622C284.152 207.22 283.99 207.806 283.686 208.322C283.383 208.837 282.95 209.264 282.43 209.56L257.6 223.65C257.087 223.939 256.509 224.091 255.92 224.091C255.331 224.091 254.753 223.939 254.24 223.65L232.53 211.44C232.127 211.216 231.79 210.89 231.553 210.495C231.316 210.099 231.187 209.649 231.179 209.188C231.171 208.727 231.284 208.272 231.507 207.869C231.73 207.466 232.055 207.128 232.45 206.89V206.89Z" fill="#2C9390"/>
<path id="Vector_20" d="M340.44 169C340.44 169 339.54 194.61 325.99 195.22C312.44 195.83 311.53 169 311.53 169" fill="#6DE2FC"/>
<path id="Vector_21" d="M340.44 170.16C340.44 170.16 339.54 195.77 325.99 196.38C312.44 196.99 311.54 170.16 311.54 170.16" fill="#55B8F3"/>
<path id="Vector_22" d="M325.99 176.51C333.971 176.51 340.44 173.152 340.44 169.01C340.44 164.868 333.971 161.51 325.99 161.51C318.01 161.51 311.54 164.868 311.54 169.01C311.54 173.152 318.01 176.51 325.99 176.51Z" fill="#311E69"/>
<path id="Vector_23" d="M329.92 174.13C332.487 158.38 337.036 143.018 343.46 128.41C343.98 127.22 345.72 128.25 345.2 129.41C338.864 143.867 334.382 159.068 331.86 174.65C331.66 175.94 329.71 175.4 329.92 174.13Z" fill="#311E69"/>
<path id="Vector_24" d="M321.66 174.8C322.653 155.613 324.373 136.487 326.82 117.42C326.98 116.15 329 116.13 328.82 117.42C326.38 136.44 324.663 155.533 323.67 174.7C323 174.72 322.33 174.75 321.66 174.8Z" fill="#311E69"/>
<path id="Vector_25" d="M347.93 124.68C350.302 124.048 352.819 124.249 355.06 125.25C356.68 125.97 360.06 128.02 359.39 130.25C358.72 132.48 354.65 132.11 353.03 131.61C351.782 131.193 350.638 130.515 349.674 129.619C348.71 128.724 347.948 127.633 347.44 126.42C347.408 126.343 347.384 126.262 347.37 126.18C347.286 126.049 347.234 125.901 347.217 125.746C347.201 125.592 347.22 125.435 347.275 125.29C347.329 125.144 347.416 125.013 347.53 124.907C347.644 124.802 347.781 124.724 347.93 124.68V124.68Z" fill="#C3EA75"/>
<path id="Vector_26" d="M344.76 123.48C344.802 123.613 344.875 123.733 344.973 123.831C345.072 123.929 345.192 124.002 345.325 124.044C345.458 124.085 345.598 124.093 345.735 124.068C345.872 124.043 346.001 123.986 346.11 123.9C348.32 122.27 351.11 121.25 352.64 118.9C353.73 117.24 354.19 114.5 352.21 113.28C350.23 112.06 347.89 113.06 346.54 114.62C344.73 116.71 344.54 119.75 344.14 122.36C344.107 122.589 344.15 122.822 344.262 123.024C344.374 123.226 344.549 123.386 344.76 123.48V123.48ZM348.93 115.11V115.37C348.262 115.938 347.694 116.614 347.25 117.37C347.604 116.481 348.187 115.701 348.94 115.11H348.93Z" fill="#C3EA75"/>
<path id="Vector_27" d="M338.88 118.17C342.14 116.7 342.7 122.3 342.78 124.17C342.8 124.38 342.743 124.59 342.62 124.761C342.497 124.932 342.315 125.052 342.11 125.1C341.923 125.283 341.672 125.386 341.41 125.386C341.148 125.386 340.897 125.283 340.71 125.1C339.61 124.1 338.22 123.18 337.88 121.66C337.62 120.53 337.62 118.73 338.88 118.17Z" fill="#C3EA75"/>
<path id="Vector_28" d="M326.53 115.56C327.169 115.912 327.881 116.11 328.61 116.14C331.13 115.76 332.41 111.75 332.86 109.65C333.31 107.55 333.8 104.11 331.28 103.01C328.76 101.91 326.55 104.01 325.86 106.23C325 109.19 325.51 112.7 326.53 115.56ZM327.89 112.71C327.824 112.175 327.824 111.635 327.89 111.1C327.893 111.468 327.916 111.835 327.96 112.2V112.25C328 112.41 327.94 112.56 327.9 112.71H327.89Z" fill="#C3EA75"/>
<path id="Vector_29" d="M313.29 116.1C313.2 118.68 315.76 119.73 317.89 120.1C319.21 120.36 323.89 121.53 324.01 119.21C324.143 119.058 324.23 118.87 324.26 118.67C324.29 118.47 324.263 118.265 324.18 118.08C323.18 115.62 320.65 114.55 318.18 113.89C316.21 113.4 313.39 113.29 313.29 116.1ZM315.29 115.99C315.366 116.136 315.453 116.277 315.55 116.41C315.475 116.553 315.431 116.709 315.42 116.87C315.309 116.758 315.235 116.614 315.208 116.459C315.181 116.303 315.203 116.143 315.27 116L315.29 115.99Z" fill="#C3EA75"/>
<path id="Vector_30" d="M331.41 118.1C331.48 118.347 331.643 118.558 331.865 118.688C332.086 118.819 332.35 118.859 332.6 118.8C334.012 118.62 335.342 118.037 336.43 117.12C336.877 116.717 337.177 116.177 337.282 115.585C337.387 114.992 337.292 114.382 337.01 113.85C335.46 111.51 331.87 115.46 330.94 116.72C330.851 116.834 330.791 116.968 330.767 117.111C330.743 117.254 330.754 117.4 330.801 117.537C330.848 117.674 330.928 117.798 331.034 117.896C331.141 117.994 331.27 118.064 331.41 118.1V118.1ZM334.24 116.19L334.07 116.26L335.07 115.57C334.843 115.836 334.559 116.047 334.24 116.19V116.19Z" fill="#C3EA75"/>
<path id="Vector_31" d="M254.54 201.87L270.19 199.19L272.17 200.61L265.54 209.76L262.68 207.71L266.77 202.24L257.39 203.91L254.54 201.87Z" fill="white"/>
<path id="Vector_32" d="M249.76 204.4L252.62 206.45L248.51 211.92L257.91 210.24L260.77 212.29L245.1 214.97L243.12 213.55L249.76 204.4Z" fill="white"/>
<g id="textTech">
<path id="Vector_33" d="M187.11 237.1L213.11 221.66C213.638 221.347 214.241 221.181 214.855 221.181C215.469 221.181 216.072 221.347 216.6 221.66L237.15 233.86C237.664 234.166 238.088 234.602 238.381 235.123C238.674 235.645 238.824 236.234 238.818 236.832C238.812 237.43 238.65 238.016 238.346 238.532C238.043 239.047 237.61 239.474 237.09 239.77L212.26 253.86C211.747 254.149 211.169 254.301 210.58 254.301C209.991 254.301 209.413 254.149 208.9 253.86L187.19 241.65C186.787 241.426 186.45 241.1 186.213 240.705C185.976 240.309 185.847 239.859 185.839 239.398C185.831 238.937 185.944 238.482 186.167 238.079C186.39 237.676 186.715 237.338 187.11 237.1V237.1Z" fill="#146666"/>
<path id="Vector_34" d="M238.79 236.52V232.54L236.32 233.7L237.48 236L238.79 236.52Z" fill="#146666"/>
<path id="Vector_35" d="M185.82 239.33V235.08L188.75 236L187.9 239.42L185.82 239.33Z" fill="#146666"/>
<path id="Vector_36" d="M187.11 232.82L213.11 217.38C213.638 217.067 214.241 216.901 214.855 216.901C215.469 216.901 216.072 217.067 216.6 217.38L237.15 229.58C237.664 229.886 238.088 230.322 238.381 230.843C238.674 231.365 238.824 231.954 238.818 232.552C238.812 233.15 238.65 233.736 238.346 234.252C238.043 234.767 237.61 235.194 237.09 235.49L212.26 249.58C211.747 249.869 211.169 250.021 210.58 250.021C209.991 250.021 209.413 249.869 208.9 249.58L187.19 237.37C186.787 237.146 186.45 236.82 186.213 236.425C185.976 236.029 185.847 235.579 185.839 235.118C185.831 234.657 185.944 234.202 186.167 233.799C186.39 233.396 186.715 233.058 187.11 232.82V232.82Z" fill="#2C9390"/>
<path id="Vector_37" d="M203.66 235.09C204.902 235.12 206.117 235.464 207.19 236.09C207.59 236.263 207.936 236.539 208.193 236.891C208.449 237.243 208.607 237.657 208.65 238.09C208.624 238.5 208.478 238.894 208.231 239.223C207.984 239.551 207.647 239.801 207.26 239.94C206.822 240.158 206.353 240.307 205.87 240.38C205.465 240.457 205.052 240.49 204.64 240.48H204.17L207.89 242.72L205.89 243.72L196.24 237.91L198.24 236.91L199.07 237.41V237.31C199.07 237.31 199.07 237.17 199.07 237.04C199.09 236.903 199.134 236.771 199.2 236.65C199.294 236.484 199.416 236.335 199.56 236.21C199.758 236.029 199.98 235.878 200.22 235.76C201.289 235.241 202.475 235.01 203.66 235.09ZM205.96 238.18C205.96 237.8 205.68 237.44 205.13 237.11C204.568 236.776 203.933 236.587 203.28 236.56C202.675 236.511 202.069 236.621 201.52 236.88C201.03 237.13 200.79 237.44 200.79 237.83C200.79 238.22 201.07 238.57 201.62 238.9C202.182 239.234 202.817 239.423 203.47 239.45C204.081 239.503 204.695 239.392 205.25 239.13C205.73 238.88 205.98 238.57 205.97 238.18" fill="white"/>
<path id="Vector_38" d="M221.45 226C222.692 226.032 223.906 226.376 224.98 227C225.378 227.175 225.724 227.452 225.98 227.803C226.236 228.154 226.395 228.567 226.44 229C226.414 229.41 226.268 229.804 226.021 230.133C225.774 230.461 225.437 230.711 225.05 230.85C224.612 231.067 224.143 231.215 223.66 231.29C223.255 231.366 222.842 231.399 222.43 231.39H221.96L225.68 233.63L223.68 234.63L214 228.83L216 227.83L216.83 228.33V228.22C216.822 228.13 216.822 228.04 216.83 227.95C216.853 227.814 216.897 227.682 216.96 227.56C217.056 227.395 217.178 227.247 217.32 227.12C217.518 226.939 217.74 226.788 217.98 226.67C219.058 226.146 220.255 225.915 221.45 226V226ZM223.75 229.09C223.75 228.71 223.47 228.35 222.92 228.02C222.358 227.686 221.723 227.497 221.07 227.47C220.465 227.42 219.858 227.53 219.31 227.79C218.83 228.04 218.58 228.35 218.58 228.73C218.58 229.11 218.86 229.47 219.4 229.8C219.966 230.13 220.605 230.315 221.26 230.34C221.868 230.392 222.479 230.282 223.03 230.02C223.52 229.77 223.76 229.46 223.75 229.07" fill="white"/>
<path id="Vector_39" d="M204.43 230.51L208.15 232.75C208.141 232.657 208.141 232.563 208.15 232.47C208.187 232.252 208.276 232.046 208.41 231.87C208.621 231.553 208.915 231.301 209.26 231.14C210.131 230.711 211.102 230.525 212.07 230.6C213.109 230.652 214.12 230.961 215.01 231.5L218.94 233.87L216.94 234.87L213.22 232.63C212.799 232.38 212.32 232.242 211.83 232.23C211.35 232.202 210.871 232.299 210.44 232.51C209.99 232.74 209.78 233.01 209.79 233.31C209.8 233.61 210.06 233.91 210.57 234.22L214.08 236.34L212.08 237.34L202.43 231.53L204.43 230.51Z" fill="white"/>
</g>
</g>
<defs>
<linearGradient id="paint0_linear" x1="84.58" y1="236.04" x2="146.33" y2="192.57" gradientUnits="userSpaceOnUse">
<stop stop-color="white" stop-opacity="0"/>
<stop offset="0.98" stop-color="#089FBF"/>
</linearGradient>
</defs>
</svg>
