<svg width="400" height="300" viewBox="0 0 400 300" fill="none" xmlns="http://www.w3.org/2000/svg">
<g id="css_isometric 1">
<path id="Vector" d="M362 197C327.76 215.38 227 273.52 195.28 291.87C192.342 293.578 189.004 294.478 185.605 294.478C182.206 294.478 178.868 293.578 175.93 291.87L55.22 221.34C50.42 218.54 51.96 213.23 56.8 210.49L225.3 112.59C226.168 112.098 227.148 111.84 228.145 111.84C229.142 111.84 230.122 112.098 230.99 112.59L362.16 187.18C363.027 187.681 363.744 188.405 364.238 189.277C364.731 190.148 364.983 191.136 364.966 192.137C364.95 193.138 364.667 194.117 364.145 194.972C363.623 195.827 362.883 196.527 362 197Z" fill="#709FF9"/>
<path id="Vector_2" opacity="0.32" d="M282.73 209.22C283.31 209.49 289.92 213.47 290.58 213.73L321.69 195.35L318.43 187.95L303 183.44L270.19 201.75C275.71 205 276.91 206.57 282.73 209.22Z" fill="url(#paint0_linear)"/>
<path id="Vector_3" d="M82.87 89.8C82.1353 90.2265 81.5264 90.8395 81.1049 91.5771C80.6835 92.3147 80.4644 93.1505 80.47 94V212.33C80.29 214.75 83.03 216.98 85.24 215.71L133.7 188.12C135.65 187 224.36 137.12 224.36 134.86L229.17 10.86C229.188 10.4463 229.095 10.0354 228.9 9.66985C228.706 9.3043 228.417 8.99745 228.064 8.78113C227.711 8.56482 227.307 8.44692 226.893 8.43969C226.479 8.43245 226.07 8.53613 225.71 8.73997C204.08 21 92.69 84.09 82.87 89.8Z" fill="#00275E"/>
<path id="Vector_4" d="M107 79.31L84.85 92.31C84.6394 92.4339 84.4649 92.6108 84.3438 92.8231C84.2228 93.0354 84.1594 93.2756 84.16 93.52V211.76C84.1717 211.923 84.2229 212.08 84.3093 212.218C84.3956 212.356 84.5145 212.471 84.6554 212.553C84.7964 212.635 84.9553 212.681 85.1182 212.688C85.281 212.694 85.443 212.661 85.59 212.59L224.48 131.8C224.473 132.792 224.233 133.768 223.779 134.651C223.326 135.533 222.672 136.296 221.87 136.88C219.21 138.58 85.24 215.72 85.24 215.72C85.24 215.72 81.54 217.39 80.47 212.98V94C80.4675 93.2304 80.6475 92.4712 80.9952 91.7846C81.3428 91.098 81.8482 90.5035 82.47 90.05C84.61 88.5 222.54 8.15 222.54 8.15C222.54 8.15 227.54 6.31 229.23 9.33L121.15 71.14" fill="#6DE1FC"/>
<g id="textTech">
<path id="Vector_5" d="M316.87 69.39L323.6 65.19L327.27 71.35H318.12" fill="#45126D"/>
<path id="Vector_6" d="M336.32 88.79C335.843 89.049 335.287 89.1208 334.76 88.9914C334.232 88.8619 333.773 88.5405 333.47 88.09C333.229 87.9236 333.022 87.7133 332.86 87.47C332.59 86.9832 332.518 86.4108 332.66 85.8723C332.801 85.3339 333.145 84.8709 333.62 84.58C334.32 84.09 335.04 83.66 335.78 83.24V83.14L342.51 78.94L333 71.35H327.27L325.47 74.94L319.18 76.57V84.83L325.02 91.33L330.07 98.2L331.87 103.93L324.87 99.66L318.08 92.78C318.08 92.78 310.41 98.21 311.86 97.98C313.31 97.75 332.66 113.3 332.66 113.3L340.91 108.18L336.87 88.5C336.693 88.6089 336.51 88.7058 336.32 88.79Z" fill="#45126D"/>
<path id="Vector_7" d="M304.77 95.84L312.78 90.91L306.61 89.43" fill="#45126D"/>
<path id="Vector_8" d="M307.8 70.55C306.834 70.029 306.041 69.2364 305.52 68.27C305.25 67.7832 305.178 67.2109 305.32 66.6724C305.461 66.1339 305.805 65.6709 306.28 65.38C306.91 64.97 306.73 65.57 307.39 65.94L314.62 61.58L302.28 50.28L295.84 47.71L287.68 52.71L292.34 58.71L292.17 67.83L297 74.26L301 80.58L303.34 87.15L297.18 82.08L290.18 75.27L283.43 79.43L295.8 89.89L301.54 93L309.74 85.56L310.34 77.96L308.9 70.84C308.515 70.8374 308.136 70.7377 307.8 70.55Z" fill="#45126D"/>
<path id="Vector_9" d="M255.64 33.74L262.37 29.54L281.67 41.1L288.4 47.63L281.67 51.84L277.05 43.9L262.22 38.74L260.3 46.72L262.67 57.35L266.94 65.77L273.6 68.29L281.67 66.96L287.11 72.87L280.97 76.57L270.05 73.87L262.37 69.01L258.08 63.12L255.64 55.64L253.8 48.05" fill="#45126D"/>
<path id="Vector_10" d="M275.18 31.56C276.921 32.6661 278.537 33.9569 280 35.41C281.372 36.7191 282.621 38.1518 283.73 39.69C284.73 41.06 285.55 42.36 286.29 43.58C286.876 44.5235 287.404 45.502 287.87 46.51L288.36 47.64L283.73 50.07C283.64 49.88 283.53 49.6 283.37 49.23C283.21 48.86 282.88 48.23 282.37 47.23C281.842 46.2727 281.258 45.3477 280.62 44.46C279.854 43.428 279.012 42.4553 278.1 41.55C277.13 40.55 276.046 39.6673 274.87 38.92C271.817 37.0134 269.223 36.62 267.09 37.74C264.957 38.86 263.82 41.21 263.68 44.79C263.605 48.5919 264.547 52.3448 266.41 55.66C268.144 59.0853 270.765 61.9826 274 64.05C275.058 64.732 276.21 65.2543 277.42 65.6C278.309 65.8742 279.241 65.9826 280.17 65.92C280.833 65.8568 281.487 65.7193 282.12 65.51C282.572 65.3773 282.994 65.1564 283.36 64.86L283.74 64.53L287.74 72.36C287.563 72.5449 287.369 72.7123 287.16 72.86C286.609 73.1797 286.03 73.4476 285.43 73.66C284.518 74.0003 283.561 74.2026 282.59 74.26C281.264 74.2703 279.945 74.0746 278.68 73.68C276.911 73.1814 275.226 72.4232 273.68 71.43C268.425 68.0221 264.156 63.2946 261.3 57.72C258.033 51.68 256.503 45.9167 256.71 40.43C256.917 34.9434 258.803 31.3167 262.37 29.55C265.937 27.7834 270.207 28.4534 275.18 31.56Z" fill="#45126D"/>
<path id="Vector_11" d="M304 49.6C305.376 50.475 306.665 51.4796 307.85 52.6C308.93 53.5853 309.933 54.6517 310.85 55.79C311.62 56.79 312.3 57.7 312.85 58.59C313.313 59.2696 313.728 59.9814 314.09 60.72L314.48 61.51L310.09 64.09C309.92 63.72 309.68 63.26 309.36 62.7C308.766 61.7356 308.098 60.8194 307.36 59.96C306.46 58.8152 305.379 57.8254 304.16 57.03C302.827 56.1967 301.74 55.9267 300.9 56.22C300.474 56.384 300.113 56.6829 299.873 57.0711C299.633 57.4594 299.526 57.9156 299.57 58.37C299.601 59.8735 300.141 61.322 301.1 62.48C302.285 64.0722 303.6 65.564 305.03 66.94C306.577 68.46 308.13 70.0667 309.69 71.76C311.301 73.54 312.617 75.5654 313.59 77.76C314.655 80.0215 315.176 82.5011 315.11 85C314.98 88.53 313.77 90.74 311.5 91.61C309.23 92.48 306.16 91.71 302.31 89.3C300.741 88.311 299.274 87.1687 297.93 85.89C296.685 84.7374 295.535 83.4867 294.49 82.15C293.597 80.97 292.813 79.8534 292.14 78.8C291.61 77.9933 291.129 77.155 290.7 76.29L290.2 75.29L294.59 73C294.79 73.41 295.07 74 295.44 74.66C296.194 75.8931 297.05 77.0605 298 78.15C299.165 79.6216 300.563 80.8918 302.14 81.91C303.827 82.9634 305.16 83.32 306.14 82.98C307.14 82.65 307.64 81.77 307.69 80.35C307.658 78.8437 307.119 77.3923 306.16 76.23C304.959 74.627 303.62 73.1314 302.16 71.76C300.593 70.24 299.04 68.6367 297.5 66.95C295.895 65.1695 294.585 63.1439 293.62 60.95C292.582 58.6787 292.092 56.1953 292.19 53.7C292.31 50.6067 293.467 48.6267 295.66 47.76C297.853 46.8934 300.633 47.5067 304 49.6Z" fill="#45126D"/>
<path id="Vector_12" d="M332 67.05C333.376 67.925 334.665 68.9296 335.85 70.05C336.932 71.0336 337.935 72.1001 338.85 73.24C339.63 74.24 340.31 75.16 340.85 76.04C341.31 76.7163 341.721 77.4248 342.08 78.16L342.47 78.95L338.09 81.53C337.92 81.16 337.68 80.7 337.36 80.14C336.766 79.1756 336.098 78.2594 335.36 77.4C334.46 76.2556 333.379 75.2659 332.16 74.47C330.827 73.6367 329.737 73.3667 328.89 73.66C328.466 73.8288 328.108 74.1306 327.87 74.5201C327.632 74.9095 327.527 75.3656 327.57 75.82C327.598 77.324 328.138 78.7736 329.1 79.93C330.284 81.523 331.599 83.0148 333.03 84.39C334.577 85.91 336.13 87.5167 337.69 89.21C339.299 90.9911 340.616 93.0163 341.59 95.21C342.627 97.485 343.117 99.9715 343.02 102.47C342.89 106 341.68 108.21 339.4 109.08C337.12 109.95 334.06 109.18 330.21 106.78C328.641 105.791 327.174 104.649 325.83 103.37C324.584 102.218 323.434 100.967 322.39 99.63C321.497 98.45 320.713 97.3333 320.04 96.28C319.51 95.4732 319.029 94.635 318.6 93.77L318.1 92.77L322.49 90.49C322.7 90.91 322.98 91.49 323.35 92.15C324.091 93.3634 324.931 94.5139 325.86 95.59C327.025 97.0646 328.423 98.3382 330 99.36C331.687 100.413 333.02 100.773 334 100.44C335 100.11 335.5 99.23 335.55 97.81C335.513 96.3011 334.967 94.8492 334 93.69C332.816 92.0878 331.494 90.5921 330.05 89.22C328.483 87.7 326.93 86.0967 325.39 84.41C323.782 82.6296 322.469 80.6042 321.5 78.41C320.469 76.1403 319.983 73.661 320.08 71.17C320.2 68.0767 321.357 66.0967 323.55 65.23C325.743 64.3633 328.56 64.97 332 67.05Z" fill="#45126D"/>
<path id="Vector_13" d="M268.45 35.77C270.205 36.8737 271.834 38.1646 273.31 39.62C274.668 40.9308 275.903 42.3635 277 43.9C278 45.27 278.82 46.57 279.56 47.79C280.146 48.7335 280.674 49.712 281.14 50.72L281.63 51.85L277 54.27C276.91 54.08 276.8 53.8 276.64 53.43C276.48 53.06 276.15 52.43 275.64 51.43C275.112 50.4727 274.528 49.5477 273.89 48.66C273.124 47.628 272.282 46.6552 271.37 45.75C270.4 44.75 269.316 43.8673 268.14 43.12C265.087 41.2134 262.493 40.82 260.36 41.94C258.227 43.06 257.107 45.4134 257 49C256.925 52.8019 257.867 56.5548 259.73 59.87C261.443 63.2816 264.036 66.1744 267.24 68.25C268.298 68.932 269.45 69.4543 270.66 69.8C271.549 70.0742 272.481 70.1826 273.41 70.12C274.073 70.0568 274.727 69.9192 275.36 69.71C275.812 69.5773 276.234 69.3564 276.6 69.06L276.98 68.73L280.98 76.56C280.803 76.7449 280.609 76.9123 280.4 77.06C279.849 77.3797 279.27 77.6476 278.67 77.86C277.758 78.2003 276.801 78.4025 275.83 78.46C274.504 78.4703 273.185 78.2746 271.92 77.88C270.151 77.3814 268.466 76.6232 266.92 75.63C261.667 72.2179 257.402 67.487 254.55 61.91C251.283 55.87 249.753 50.1067 249.96 44.62C250.167 39.1334 252.053 35.5067 255.62 33.74C259.207 31.9867 263.483 32.6634 268.45 35.77Z" fill="#6DE1FC"/>
<path id="Vector_14" d="M297.32 53.81C298.696 54.685 299.985 55.6895 301.17 56.81C302.25 57.7952 303.253 58.8617 304.17 60C304.94 61 305.62 61.91 306.17 62.8C306.633 63.4796 307.048 64.1914 307.41 64.93L307.8 65.72L303.41 68.3C303.24 67.93 303 67.47 302.68 66.91C302.086 65.9455 301.418 65.0294 300.68 64.17C299.78 63.0251 298.7 62.0353 297.48 61.24C296.147 60.4066 295.06 60.1366 294.22 60.43C293.794 60.5939 293.433 60.8928 293.193 61.2811C292.953 61.6693 292.846 62.1255 292.89 62.58C292.921 64.0834 293.461 65.532 294.42 66.69C295.605 68.2822 296.92 69.7739 298.35 71.15C299.897 72.67 301.45 74.2766 303.01 75.97C304.621 77.75 305.937 79.7754 306.91 81.97C307.947 84.245 308.437 86.7315 308.34 89.23C308.21 92.76 307 94.97 304.73 95.84C302.46 96.71 299.39 95.94 295.54 93.53C293.971 92.5409 292.504 91.3987 291.16 90.12C289.915 88.9673 288.765 87.7166 287.72 86.38C286.827 85.2 286.043 84.0833 285.37 83.03C284.864 82.2214 284.406 81.3833 284 80.52L283.5 79.52L287.89 77.24C288.09 77.65 288.37 78.24 288.74 78.9C289.483 80.1177 290.326 81.2717 291.26 82.35C292.425 83.8215 293.823 85.0918 295.4 86.11C297.087 87.1633 298.42 87.52 299.4 87.18C300.4 86.85 300.9 85.97 300.95 84.55C300.918 83.0437 300.379 81.5922 299.42 80.43C298.219 78.8269 296.88 77.3313 295.42 75.96C293.853 74.44 292.3 72.8366 290.76 71.15C289.155 69.3694 287.845 67.3439 286.88 65.15C285.842 62.8787 285.352 60.3953 285.45 57.9C285.57 54.8066 286.727 52.8266 288.92 51.96C291.113 51.0933 293.913 51.71 297.32 53.81Z" fill="#6DE1FC"/>
<path id="Vector_15" d="M325.24 71.26C326.616 72.135 327.905 73.1395 329.09 74.26C330.172 75.2435 331.175 76.3101 332.09 77.45C332.87 78.45 333.55 79.37 334.09 80.25C334.55 80.9262 334.961 81.6347 335.32 82.37L335.71 83.16L331.33 85.74C331.16 85.37 330.92 84.91 330.6 84.35C330.006 83.3855 329.338 82.4694 328.6 81.61C327.7 80.4656 326.619 79.4759 325.4 78.68C324.067 77.8466 322.977 77.5766 322.13 77.87C321.722 78.0471 321.381 78.3484 321.155 78.7308C320.929 79.1133 320.829 79.5575 320.87 80C320.898 81.504 321.438 82.9536 322.4 84.11C323.584 85.703 324.899 87.1948 326.33 88.57C327.877 90.09 329.43 91.6966 330.99 93.39C332.599 95.1711 333.916 97.1963 334.89 99.39C335.927 101.665 336.417 104.151 336.32 106.65C336.19 110.18 334.98 112.39 332.7 113.26C330.42 114.13 327.36 113.36 323.51 110.96C321.941 109.971 320.474 108.829 319.13 107.55C317.884 106.398 316.734 105.147 315.69 103.81C314.797 102.63 314.013 101.513 313.34 100.46C312.811 99.6694 312.331 98.8479 311.9 98L311.4 97L315.79 94.72C316 95.14 316.28 95.72 316.65 96.38C317.391 97.5933 318.231 98.7439 319.16 99.82C320.325 101.291 321.724 102.561 323.3 103.58C324.987 104.633 326.32 104.993 327.3 104.66C328.3 104.33 328.8 103.45 328.85 102.03C328.818 100.519 328.275 99.0631 327.31 97.9C326.126 96.2978 324.804 94.8021 323.36 93.43C321.793 91.91 320.24 90.3066 318.7 88.62C317.093 86.8396 315.779 84.8141 314.81 82.62C313.779 80.3502 313.293 77.871 313.39 75.38C313.51 72.2866 314.667 70.3066 316.86 69.44C319.053 68.5733 321.847 69.18 325.24 71.26Z" fill="#6DE1FC"/>
</g>
<path id="Vector_16" d="M184.36 61.68V65.06L212.59 48.65V45.36L184.36 61.68Z" fill="#F7931E"/>
<path id="Vector_17" d="M181.55 63.3L101.97 109.31V112.94L181.55 66.69V63.3Z" fill="#00A99D"/>
<path id="Vector_18" d="M114.42 113.09L101.97 120.29V123.92L114.42 116.69V113.09Z" fill="#8CC63F"/>
<path id="Vector_19" d="M117.23 111.47V115.05L161.79 89.16V85.71L117.23 111.47Z" fill="#F7931E"/>
<path id="Vector_20" d="M164.6 84.09V87.53L193.74 70.59V67.24L164.6 84.09Z" fill="#F15A24"/>
<path id="Vector_21" d="M196.55 65.61V68.96L212.59 59.64V56.34L196.55 65.61Z" fill="#8CC63F"/>
<path id="Vector_22" d="M182.45 84.67L102.87 130.67V134.3L182.45 88.05V84.67Z" fill="#00A99D"/>
<path id="Vector_23" d="M188.87 101.62V105L217.1 88.59V85.3L188.87 101.62Z" fill="#F7931E"/>
<path id="Vector_24" d="M186.06 103.25L106.48 149.25V152.88L186.06 106.63V103.25Z" fill="#00A99D"/>
<path id="Vector_25" d="M118.93 153.04L106.48 160.24V163.86L118.93 156.63V153.04Z" fill="#8CC63F"/>
<path id="Vector_26" d="M121.74 151.41V155L166.3 129.1V125.65L121.74 151.41Z" fill="#F7931E"/>
<path id="Vector_27" d="M169.11 124.03V127.47L198.25 110.53V107.18L169.11 124.03Z" fill="#F15A24"/>
<path id="Vector_28" d="M201.06 105.56V108.9L217.1 99.58V96.29L201.06 105.56Z" fill="#8CC63F"/>
<path id="Vector_29" d="M186.96 124.61L107.38 170.62V174.24L186.96 128V124.61Z" fill="#00A99D"/>
<path id="Vector_30" d="M318.37 169.47C317.63 167.89 314.37 166.69 310.46 166.69C306.55 166.69 303.12 167.95 302.46 169.59C297.86 176.03 293.33 186.52 298.99 193.59C300.365 195.184 302.072 196.457 303.991 197.321C305.91 198.185 307.995 198.618 310.1 198.59H310.78C312.885 198.618 314.97 198.185 316.889 197.321C318.808 196.457 320.515 195.184 321.89 193.59C327.63 186.48 323 175.9 318.37 169.47Z" fill="#6DE1FC"/>
<path id="Vector_31" opacity="0.5" d="M310.46 173.61C314.917 173.61 318.53 172.061 318.53 170.15C318.53 168.239 314.917 166.69 310.46 166.69C306.003 166.69 302.39 168.239 302.39 170.15C302.39 172.061 306.003 173.61 310.46 173.61Z" fill="black"/>
<path id="Vector_32" d="M319.88 140.79C314.884 149.237 311.811 158.681 310.88 168.45C310.879 156.639 309.794 144.853 307.64 133.24C307.56 132.83 306.93 133 307.01 133.41C309.421 146.396 310.486 159.596 310.19 172.8C310.189 172.85 310.2 172.899 310.222 172.944C310.244 172.989 310.277 173.027 310.317 173.057C310.357 173.086 310.404 173.106 310.453 173.113C310.502 173.121 310.553 173.116 310.6 173.1C310.6 173.2 310.6 173.29 310.6 173.39C310.613 173.466 310.653 173.536 310.713 173.586C310.772 173.635 310.847 173.663 310.925 173.663C311.003 173.663 311.078 173.635 311.137 173.586C311.197 173.536 311.236 173.466 311.25 173.39C311.477 162.024 314.632 150.91 320.41 141.12C320.425 141.053 320.42 140.983 320.393 140.919C320.367 140.856 320.321 140.802 320.263 140.766C320.204 140.729 320.136 140.712 320.067 140.716C319.999 140.721 319.933 140.747 319.88 140.79Z" fill="#FE6162"/>
<path id="Vector_33" d="M314.78 151.53C314.78 151.53 319.78 135.47 330.49 129.53C330.49 129.53 328.32 132.72 329.33 135.32C330.34 137.92 331.94 142.56 326.87 145.17C321.8 147.78 318.87 145.17 319.34 150.24C319.81 155.31 321.78 157.77 318.53 160.24C315.28 162.71 312.53 164.85 311.43 170.15C311.43 170.15 312.66 156.87 314.78 151.53Z" fill="#FE6162"/>
<path id="Vector_34" d="M310 149.84C310 149.84 307.92 125.17 303.58 118.93C303.912 121.314 303.485 123.742 302.36 125.87C300.48 129.44 298.46 130.68 299.55 135.33C300.64 139.98 305.04 139.05 304.62 143.7C304.2 148.35 300.52 147.47 302.36 153.34C304.2 159.21 310.45 163.07 310.45 163.07" fill="#FE6162"/>
<path id="Vector_35" opacity="0.32" d="M176.39 272.61C177.56 273.14 190.76 281.11 192.1 281.61L254.31 244.85L232.74 233.75L201.89 230.16L151.29 257.67C162.34 264.1 164.76 267.31 176.39 272.61Z" fill="url(#paint1_linear)"/>
<path id="Vector_36" d="M213.68 218.74C213.68 218.74 213.86 221.8 212.91 222.65C211.96 223.5 206.91 221.13 205.5 221.97C204.09 222.81 210.62 228.97 212.91 229.28C215.2 229.59 217.31 226.37 217.31 226.37V231L219.9 232.47L221.8 231.34L221.24 218.75L213.68 218.74Z" fill="#060638"/>
<path id="Vector_37" d="M217.14 203.24C218.657 202.083 220.402 201.26 222.26 200.828C224.119 200.395 226.048 200.362 227.92 200.73C232.16 201.66 235.82 204.32 240.14 204.98C240.82 205.08 243.55 204.91 243.96 205.3C255.96 216.66 222.4 215.45 222.4 215.45C219.14 212.78 216.08 210.16 212.84 207.45C213.82 205.27 215.47 204.41 217.14 203.24Z" fill="#F8997C"/>
<path id="Vector_38" d="M232.94 219.72L234.13 254C234.13 255.3 232.13 255.3 232.13 254L230.94 219.71C230.87 218.42 232.9 218.42 232.94 219.72Z" fill="#844040"/>
<path id="Vector_39" d="M207.77 238.06C213.883 232.06 219.723 225.817 225.29 219.33C226.14 218.33 227.56 219.78 226.72 220.76C221.16 227.26 215.32 233.503 209.2 239.49C208.27 240.4 206.84 239 207.77 238.06Z" fill="#844040"/>
<path id="Vector_40" d="M239.95 216.54C244.697 225.5 249.167 234.597 253.36 243.83C253.89 245.01 252.15 246.03 251.62 244.83C247.42 235.61 242.947 226.52 238.2 217.56C237.59 216.41 239.34 215.39 239.95 216.54Z" fill="#844040"/>
<path id="Vector_41" d="M213.4 206.45C215.422 209.218 218.268 211.276 221.53 212.33C226.12 213.7 232.79 213.06 235.2 208.33C239.59 199.73 235.47 188.97 240.1 180.61C240.639 179.549 241.396 178.613 242.322 177.863C243.247 177.114 244.32 176.567 245.47 176.26C248.47 175.61 250.53 177.84 251.62 180.45C253.62 185.14 253.5 190.98 253.41 195.98C253.405 200.016 253.108 204.047 252.52 208.04C252.52 208.04 249.71 224.8 227.83 220.3C224.047 219.625 220.41 218.299 217.08 216.38C215.379 215.417 213.887 214.125 212.69 212.58C211.36 210.66 212.25 208.38 213.4 206.45Z" fill="#6DE1FC"/>
<path id="Vector_42" d="M229.31 204.63C228.422 198.618 228.008 192.546 228.07 186.47C228.064 186.111 228.177 185.759 228.39 185.47C228.39 184.87 228.39 184.27 228.39 183.66C224.39 183.52 217.93 184.03 213.3 187.2C207.23 191.36 210.09 217.36 212.52 221.64C215.9 223.09 218.83 223.17 221.52 220.82L224.25 205.23C225.927 206.12 227.694 206.831 229.52 207.35C229.453 206.45 229.383 205.543 229.31 204.63Z" fill="#124577"/>
<path id="Vector_43" d="M198.26 222.53C198.26 222.53 198.44 225.59 197.49 226.44C196.54 227.29 191.49 224.92 190.08 225.76C188.67 226.6 195.2 232.76 197.49 233.07C199.78 233.38 201.89 230.16 201.89 230.16V234.77L204.48 236.24L206.38 235.11L205.82 222.52L198.26 222.53Z" fill="#060638"/>
<path id="Vector_44" d="M207 224.78C204.28 227.12 201.35 227.05 198 225.6C195.57 221.33 192.71 195.32 198.78 191.16C205.3 186.7 215.49 187.49 217.2 187.98L242.2 192.07C244.12 195.33 239.04 212.41 227.95 212.88C216.86 213.35 209.78 209.19 209.78 209.19L207 224.78Z" fill="#124577"/>
<path id="Vector_45" d="M216.71 153.42C217.899 153.944 218.882 154.843 219.51 155.98V156.07C221.27 157.51 221.51 160.13 223.41 161.43C223.41 161.48 225.17 162.71 225.18 162.76C225.19 162.81 225.01 160.36 225.02 160.37C225.63 162.03 226.22 163.69 226.74 165.37C226.656 165.423 226.565 165.464 226.47 165.49L226.67 165.59L226.84 165.69C226.862 165.774 226.904 165.852 226.961 165.918C227.018 165.984 227.09 166.036 227.17 166.07C227.239 166.316 227.235 166.576 227.16 166.819C227.085 167.063 226.941 167.28 226.746 167.445C226.552 167.609 226.313 167.714 226.06 167.747C225.808 167.78 225.551 167.739 225.32 167.63L219.67 164.87C218.919 164.711 218.18 164.497 217.46 164.23C217.46 163.64 217.37 163.05 217.31 162.46C216.868 161.771 216.603 160.983 216.537 160.167C216.47 159.351 216.605 158.532 216.93 157.78C216.901 157.742 216.868 157.709 216.83 157.68V157.62C216.362 157.293 215.963 156.877 215.657 156.394C215.352 155.912 215.145 155.373 215.05 154.81C215 154 215.81 153 216.71 153.42Z" fill="#F7931E"/>
<path id="Vector_46" d="M223.89 158.75C223.89 158.75 217.45 162.75 216.78 166.08C216.78 166.08 221.3 175.9 221 176.29C215.89 182.95 231.21 172.07 231.21 172.07C231.21 172.07 228.11 162.75 223.89 158.75Z" fill="#6DE1FC"/>
<path id="Vector_47" d="M209.24 161.2C208.71 165.65 214.38 171.84 216.77 173.04C220.05 174.68 221.32 161.04 235.77 161.11C236.7 161.11 241.37 159.11 243.83 165.26C246.29 171.41 243.83 189.01 242.19 192.08C240.74 194.79 231.14 201.29 217.42 194.33L217.22 187.98C217.22 187.98 209.12 187.81 204.84 181.85C200.84 176.3 198.47 167.96 198.84 163.85C202 162.45 206.05 160.15 209.24 161.2Z" fill="#6DE1FC"/>
<path id="Vector_48" d="M223.89 158.75C223.89 158.75 217.45 162.75 216.78 166.08C216.78 166.08 221.3 175.9 221 176.29C215.89 182.95 231.21 172.07 231.21 172.07C231.21 172.07 228.11 162.75 223.89 158.75Z" fill="#8787D1"/>
<path id="Vector_49" d="M215.23 141.88L198.14 145.66L201.02 169.63L217.45 164.31" fill="#124577"/>
<path id="Vector_50" d="M199 160.22C199.042 160.269 199.093 160.31 199.15 160.34C199.11 161.673 199.073 163.007 199.04 164.34C199.04 165.02 200.04 164.93 200.09 164.25C200.09 164.19 200.09 164.13 200.09 164.07C200.234 164.102 200.385 164.078 200.513 164.004C200.641 163.93 200.736 163.811 200.78 163.67V163.54C200.863 163.577 200.955 163.59 201.045 163.577C201.135 163.565 201.22 163.528 201.29 163.47C201.437 163.447 201.569 163.368 201.66 163.25C201.714 163.318 201.782 163.374 201.86 163.414C201.938 163.453 202.023 163.476 202.11 163.48V163.96C202.11 164.55 203.11 164.61 203.11 164.02V163.59C203.27 164.04 204.11 164.03 204.11 163.5V162.92C204.175 162.902 204.237 162.872 204.29 162.83V162.93C204.32 163.036 204.382 163.13 204.468 163.2C204.553 163.269 204.659 163.31 204.769 163.316C204.879 163.323 204.988 163.295 205.081 163.236C205.175 163.178 205.248 163.092 205.29 162.99L205.36 162.72C205.419 162.753 205.485 162.773 205.552 162.779C205.62 162.786 205.688 162.778 205.752 162.758C205.817 162.737 205.876 162.704 205.928 162.66C205.979 162.615 206.02 162.561 206.05 162.5C206.764 161.103 207.33 159.635 207.74 158.12C207.93 157.587 207.942 157.006 207.774 156.465C207.607 155.924 207.268 155.452 206.81 155.12C206.718 155.034 206.596 154.987 206.47 154.99C206.54 154.27 206.62 153.54 206.7 152.82C206.806 152.312 206.879 151.797 206.92 151.28C207.035 150.905 207.013 150.501 206.86 150.14C206.74 149.62 206.45 149.14 205.86 149.28C204.92 149.45 204.54 150.85 204.31 151.62C204.163 152.407 204.059 153.202 204 154C203.879 153.869 203.732 153.764 203.57 153.69C203.297 153.597 203.002 153.588 202.724 153.665C202.446 153.742 202.197 153.9 202.01 154.12L201.93 154.22C201.815 154.092 201.68 153.984 201.53 153.9C201.294 153.751 201.019 153.677 200.741 153.688C200.462 153.699 200.194 153.794 199.97 153.96C199.694 154.176 199.5 154.479 199.42 154.82C199.235 154.751 199.038 154.723 198.841 154.737C198.645 154.751 198.453 154.808 198.281 154.903C198.108 154.998 197.958 155.129 197.84 155.287C197.723 155.445 197.641 155.627 197.6 155.82C197.06 157.31 198 159.12 199 160.22ZM203.33 154.84H203C202.982 154.794 202.959 154.75 202.93 154.71C202.975 154.689 203.025 154.678 203.075 154.678C203.125 154.678 203.175 154.689 203.22 154.71L203.33 154.84Z" fill="#F7931E"/>
<path id="Vector_51" d="M228.11 144.88C228.11 145.03 227.22 154.03 229.23 156.02C231.24 158.01 236.6 157.18 237.93 155.02C239.26 152.86 240.93 150.02 239.47 146.64C238.01 143.26 228.35 142.66 228.11 144.88Z" fill="#F7931E"/>
<path id="Vector_52" d="M231 150.74C230.922 150.577 230.895 150.395 230.921 150.217C230.948 150.039 231.028 149.872 231.15 149.74C231.767 148.977 232.623 148.445 233.58 148.23C234.014 148.127 234.471 148.188 234.864 148.4C235.257 148.612 235.558 148.96 235.71 149.38C236.33 151.38 233.01 152.02 231.66 152.2C231.542 152.2 231.425 152.177 231.316 152.131C231.206 152.086 231.107 152.02 231.024 151.936C230.94 151.853 230.874 151.754 230.829 151.644C230.783 151.535 230.76 151.418 230.76 151.3C230.764 151.089 230.85 150.888 231 150.74Z" fill="#FFE8E6"/>
<path id="Vector_53" d="M209.24 161.2C208.71 165.65 214.38 171.84 216.77 173.04C220.05 174.68 221.32 161.04 235.77 161.11C236.7 161.11 241.37 159.11 243.83 165.26C246.29 171.41 243.83 189.01 242.19 192.08C240.74 194.79 231.14 201.29 217.42 194.33L217.22 187.98C217.22 187.98 209.12 187.81 204.84 181.85C200.84 176.3 198.47 167.96 198.84 163.85C202 162.45 206.05 160.15 209.24 161.2Z" fill="#8787D1"/>
<path id="Vector_54" d="M210.37 186.42C214.108 187.763 218.188 187.813 221.957 186.562C225.727 185.311 228.967 182.831 231.16 179.52C231.45 179.08 232.16 179.52 231.87 179.93C229.585 183.395 226.206 185.995 222.271 187.314C218.335 188.634 214.072 188.597 210.16 187.21C209.66 187 209.87 186.24 210.37 186.42Z" fill="white"/>
<path id="Vector_55" d="M218.46 171.51C219.193 169.798 220.28 168.261 221.65 167C223.22 165.57 225.16 164.66 226.8 163.32C227.13 163.05 227.6 163.52 227.27 163.79C225.72 165.05 223.9 165.93 222.39 167.24C220.939 168.503 219.793 170.079 219.04 171.85C218.87 172.24 218.29 171.9 218.46 171.51Z" fill="white"/>
<path id="Vector_56" d="M227.91 146.15L230.78 147.66C230.78 147.66 228.56 156.1 227.89 158.32C227.22 160.54 229.89 163.65 238.55 163.87C247.21 164.09 246.77 150.99 244.77 146.11C242.77 141.23 236.77 139 231.89 140.34C230.594 140.588 229.449 141.337 228.704 142.425C227.958 143.514 227.673 144.852 227.91 146.15Z" fill="#B24D16"/>
<path id="Vector_57" d="M212.43 208.41C212.518 208.194 212.659 208.003 212.84 207.856C213.021 207.709 213.237 207.611 213.467 207.57C213.696 207.529 213.933 207.547 214.154 207.622C214.375 207.697 214.573 207.827 214.73 208C216.574 210.019 218.921 211.513 221.53 212.33C226.12 213.7 232.79 213.06 235.2 208.33C239.57 199.76 235.5 189.05 240.05 180.7C240.833 179.195 242.016 177.935 243.47 177.06C247.58 174.69 250.31 177.28 251.63 180.44C253.63 185.13 253.51 190.97 253.42 195.97C253.415 200.006 253.118 204.037 252.53 208.03C252.53 208.03 249.72 224.79 227.84 220.29C224.057 219.615 220.42 218.289 217.09 216.37C215.389 215.406 213.897 214.115 212.7 212.57C212.306 211.956 212.074 211.253 212.027 210.525C211.98 209.797 212.118 209.069 212.43 208.41Z" fill="#6DE1FC"/>
</g>
<defs>
<linearGradient id="paint0_linear" x1="279.41" y1="208.97" x2="295.44" y2="198.86" gradientUnits="userSpaceOnUse">
<stop stop-color="white" stop-opacity="0"/>
<stop offset="0.99" stop-color="#0048AA"/>
</linearGradient>
<linearGradient id="paint1_linear" x1="17621.4" y1="14235.9" x2="19356.9" y2="12044.5" gradientUnits="userSpaceOnUse">
<stop stop-color="white" stop-opacity="0"/>
<stop offset="0.99" stop-color="#0048AA"/>
</linearGradient>
</defs>
</svg>
