<svg width="400" height="300" viewBox="0 0 400 300" fill="none" xmlns="http://www.w3.org/2000/svg">
<g id="framework 1">
<path id="Vector" d="M26.64 162.42L162.25 83.5499C163.224 82.9873 164.33 82.6912 165.455 82.6912C166.58 82.6912 167.686 82.9873 168.66 83.5499L371.45 199.6C372.429 200.161 373.242 200.971 373.807 201.947C374.372 202.924 374.67 204.032 374.67 205.16C374.67 206.288 374.372 207.396 373.807 208.373C373.242 209.349 372.429 210.159 371.45 210.72L241.79 285.59C238.608 287.427 234.999 288.394 231.325 288.394C227.651 288.394 224.042 287.427 220.86 285.59L26.66 173.51C25.6874 172.948 24.8795 172.141 24.3171 171.169C23.7548 170.197 23.4577 169.094 23.4557 167.971C23.4537 166.848 23.7468 165.744 24.3056 164.77C24.8645 163.795 25.6694 162.985 26.64 162.42V162.42Z" fill="#007F68"/>
<path id="Vector_2" d="M98.89 175.35V178.64L100.55 180.68" fill="#ADCEE1"/>
<path id="Vector_3" d="M165 135.29L100.77 175.1C100.187 175.468 99.709 175.98 99.3824 176.587C99.0557 177.194 98.8914 177.875 98.9055 178.565C98.9196 179.254 99.1115 179.928 99.4628 180.521C99.814 181.114 100.313 181.606 100.91 181.95L198.39 237.09C199.752 237.861 201.294 238.261 202.859 238.249C204.425 238.236 205.96 237.813 207.31 237.02L271.26 199.43C275.91 195.61 275.56 188.43 271.26 188.12L174.34 135.12C172.915 134.297 171.292 133.879 169.646 133.908C168.001 133.938 166.395 134.416 165 135.29V135.29Z" fill="#88D3D8"/>
<path id="Vector_4" d="M165 132.55L100.76 172.36C100.177 172.728 99.699 173.24 99.3724 173.847C99.0457 174.454 98.8814 175.135 98.8955 175.825C98.9096 176.514 99.1015 177.188 99.4527 177.781C99.804 178.374 100.303 178.866 100.9 179.21L198.38 234.35C199.742 235.121 201.284 235.521 202.849 235.509C204.415 235.496 205.95 235.073 207.3 234.28L271.25 196.69C271.987 196.245 272.597 195.617 273.02 194.867C273.443 194.117 273.665 193.271 273.665 192.41C273.665 191.549 273.443 190.703 273.02 189.953C272.597 189.203 271.987 188.575 271.25 188.13L174.3 132.39C172.88 131.574 171.266 131.157 169.628 131.185C167.99 131.214 166.391 131.685 165 132.55V132.55Z" fill="white"/>
<path id="Vector_5" d="M167.63 127.11C167.63 127.11 194.31 41 194.14 41C193.97 41 194.97 37.17 199.74 39.34L302.12 99.6C302.12 99.6 307.12 101.6 306.12 106.23C305.12 110.86 280 190.49 280 190.49C279.476 191.247 278.724 191.817 277.853 192.117C276.983 192.417 276.039 192.432 275.16 192.16C272.04 191.16 169.99 131.91 169.99 131.91C169.062 131.557 168.302 130.866 167.864 129.975C167.426 129.084 167.342 128.06 167.63 127.11V127.11Z" fill="#55B8F3"/>
<path id="Vector_6" d="M195.84 47.26L300.68 108.38L278.94 181.39L172.75 122.08L195.84 47.26Z" fill="#172D51"/>
<path id="Vector_7" d="M161.07 141.67L137.58 156.3C137.162 156.558 136.818 156.921 136.582 157.352C136.347 157.784 136.228 158.269 136.237 158.761C136.246 159.252 136.383 159.733 136.634 160.155C136.885 160.578 137.242 160.927 137.67 161.17L222 209.23C223.26 209.958 224.69 210.341 226.145 210.341C227.6 210.341 229.03 209.958 230.29 209.23C235.71 206.07 245.04 200.38 250.75 196.88C251.258 196.568 251.677 196.129 251.964 195.607C252.252 195.084 252.4 194.496 252.393 193.9C252.386 193.304 252.224 192.719 251.924 192.204C251.624 191.689 251.195 191.26 250.68 190.96C233.61 181 178 148.66 165.8 141.59C165.079 141.173 164.257 140.96 163.424 140.974C162.591 140.988 161.777 141.228 161.07 141.67V141.67Z" fill="#55B8F3"/>
<path id="Vector_8" d="M162.33 181.39L191.78 197.95C192.229 198.207 192.602 198.579 192.861 199.027C193.12 199.474 193.257 199.983 193.257 200.5C193.257 201.017 193.12 201.526 192.861 201.973C192.602 202.421 192.229 202.792 191.78 203.05L174.46 213.19C173.866 213.533 173.191 213.714 172.505 213.714C171.819 213.714 171.144 213.533 170.55 213.19L140.46 196C140.084 195.785 139.771 195.474 139.554 195.099C139.337 194.724 139.222 194.298 139.222 193.865C139.222 193.432 139.337 193.006 139.554 192.631C139.771 192.256 140.084 191.945 140.46 191.73L158.46 181.38C159.051 181.046 159.718 180.871 160.396 180.873C161.075 180.874 161.741 181.053 162.33 181.39V181.39Z" fill="#55B8F3"/>
<path id="Vector_9" opacity="0.1" d="M161.07 141.67L137.58 156.3C137.162 156.558 136.818 156.921 136.582 157.352C136.347 157.784 136.228 158.269 136.237 158.761C136.246 159.252 136.383 159.733 136.634 160.155C136.885 160.578 137.242 160.927 137.67 161.17L222 209.23C223.26 209.958 224.69 210.341 226.145 210.341C227.6 210.341 229.03 209.958 230.29 209.23C235.71 206.07 245.04 200.38 250.75 196.88C251.258 196.568 251.677 196.129 251.964 195.607C252.252 195.084 252.4 194.496 252.393 193.9C252.386 193.304 252.224 192.719 251.924 192.204C251.624 191.689 251.195 191.26 250.68 190.96C233.61 181 178 148.66 165.8 141.59C165.079 141.173 164.257 140.96 163.424 140.974C162.591 140.988 161.777 141.228 161.07 141.67V141.67Z" fill="#053855"/>
<path id="Vector_10" opacity="0.1" d="M162.33 180.39L191.78 196.95C192.229 197.207 192.602 197.579 192.861 198.027C193.12 198.474 193.257 198.983 193.257 199.5C193.257 200.017 193.12 200.526 192.861 200.973C192.602 201.421 192.229 201.792 191.78 202.05L174.46 212.19C173.866 212.533 173.191 212.714 172.505 212.714C171.819 212.714 171.144 212.533 170.55 212.19L140.46 195C140.084 194.785 139.771 194.474 139.554 194.099C139.337 193.724 139.222 193.298 139.222 192.865C139.222 192.432 139.337 192.006 139.554 191.631C139.771 191.256 140.084 190.945 140.46 190.73L158.46 180.38C159.051 180.046 159.718 179.871 160.396 179.873C161.075 179.874 161.741 180.053 162.33 180.39V180.39Z" fill="#053855"/>
<path id="Vector_11" d="M140.41 184.65C138.314 178.787 137.179 172.625 137.05 166.4C136.72 158.47 139.63 146.26 151.24 147.04C167.55 148.14 173.34 165.9 182.08 170.76C190.82 175.62 210.57 167.58 211.87 175C213.17 182.42 209.65 191.18 204.52 196.57C192.18 209.57 167.7 208.57 153.16 200.09C147.237 196.591 142.725 191.128 140.41 184.65V184.65Z" fill="#FA6D90"/>
<path id="Vector_12" d="M198 197.94C171.36 201.53 139 184.23 137.7 157.82C137.126 160.551 136.878 163.341 136.96 166.13C137.089 172.355 138.224 178.518 140.32 184.38C142.636 190.864 147.151 196.331 153.08 199.83C167.48 208.2 191.63 209.27 204.08 196.66C202.088 197.236 200.055 197.663 198 197.94V197.94Z" fill="#D64770"/>
<path id="Vector_13" d="M208.78 139.75C208.782 139.3 208.67 138.857 208.455 138.462C208.24 138.067 207.929 137.733 207.55 137.49C207.513 137.116 207.378 136.758 207.158 136.452C206.939 136.147 206.643 135.905 206.3 135.75C206.252 135.728 206.202 135.711 206.15 135.7C206.744 134.562 207.226 133.37 207.59 132.14C207.577 131.933 207.496 131.736 207.361 131.579C207.225 131.422 207.042 131.314 206.839 131.271C206.636 131.228 206.425 131.252 206.237 131.341C206.05 131.429 205.896 131.576 205.8 131.76C205.243 133.307 204.526 134.792 203.66 136.19C203.588 136.152 203.51 136.125 203.43 136.11C202.34 135.96 201.43 135.69 201 136.96C200.57 138.23 200.35 139.4 200 140.62C199.972 140.721 199.966 140.828 199.982 140.932C199.998 141.036 200.037 141.135 200.095 141.223C200.152 141.311 200.228 141.386 200.317 141.442C200.406 141.499 200.506 141.535 200.61 141.55C200.683 141.762 200.836 141.936 201.035 142.037C201.235 142.138 201.466 142.157 201.68 142.09C201.728 142.258 201.81 142.414 201.92 142.55L201.86 142.62C201.765 142.746 201.708 142.896 201.693 143.054C201.679 143.211 201.709 143.369 201.78 143.51C201.85 143.651 201.959 143.77 202.093 143.853C202.227 143.936 202.382 143.98 202.54 143.98C201.87 144.44 202.27 145.68 203.14 145.37C204.83 144.76 207.21 144.37 208.52 143.02C208.981 142.616 209.266 142.049 209.315 141.438C209.364 140.827 209.172 140.221 208.78 139.75V139.75Z" fill="#FFB5A9"/>
<path id="Vector_14" d="M203.67 142.31C203.735 142.186 203.773 142.051 203.782 141.912C203.791 141.772 203.771 141.633 203.723 141.502C203.675 141.371 203.6 141.252 203.503 141.152C203.406 141.051 203.289 140.972 203.16 140.92L203.32 140.66C203.42 140.484 203.464 140.281 203.446 140.08C203.428 139.878 203.349 139.687 203.22 139.531C203.091 139.374 202.918 139.261 202.723 139.206C202.529 139.15 202.322 139.155 202.13 139.22C202.032 139.096 201.906 138.997 201.762 138.931C201.618 138.865 201.46 138.834 201.302 138.841C201.144 138.848 200.99 138.892 200.852 138.97C200.714 139.048 200.597 139.158 200.51 139.29C199.444 141.171 198.248 142.976 196.93 144.69C196.806 144.846 196.728 145.034 196.707 145.233C196.686 145.431 196.721 145.631 196.81 145.81L196.55 146.2C196.469 146.314 196.417 146.445 196.396 146.583C196.376 146.721 196.388 146.861 196.432 146.994C196.475 147.126 196.55 147.246 196.648 147.345C196.747 147.443 196.867 147.517 197 147.56C197.156 147.78 197.387 147.937 197.65 148C197.37 148.67 198.04 149.25 198.7 149.23C198.779 149.346 198.882 149.442 199.003 149.512C199.124 149.582 199.259 149.624 199.398 149.634C199.538 149.645 199.678 149.624 199.808 149.573C199.938 149.522 200.055 149.442 200.15 149.34C201.77 147.677 203.078 145.736 204.01 143.61C204.112 143.387 204.134 143.136 204.072 142.899C204.01 142.662 203.868 142.454 203.67 142.31V142.31Z" fill="#FFB5A9"/>
<path id="Vector_15" d="M195.69 175.16C199.81 171.36 204.4 165.9 201.5 161.56C196.7 154.4 183.79 162.75 181.67 163.2C172.36 165.2 153.13 187.2 170.49 186.41C178.382 186.053 185.955 183.192 192.11 178.24C193.06 177.46 194.35 176.4 195.69 175.16Z" fill="#3E2928"/>
<path id="Vector_16" d="M195.56 175C195.68 174.613 195.94 174.285 196.29 174.08C197.931 173.155 199.721 172.525 201.58 172.22C201.864 172.152 202.16 172.159 202.441 172.239C202.721 172.32 202.976 172.472 203.18 172.68V172.68C203.91 165.79 201.48 161.53 201.48 161.53L195.02 175.53C195.21 175.36 195.37 175.18 195.56 175Z" fill="#3E2928"/>
<path id="Vector_17" d="M198.57 141.8C198.346 141.728 198.139 141.613 197.96 141.46L188.2 150C186.082 146.643 184.85 142.803 184.62 138.84C184.26 132.29 171.7 131.18 171.7 131.18L177.08 153.46C177.08 153.46 180.67 162.46 186.75 163.2C191.5 163.8 201.32 153.91 205.31 148.27C203.68 145.49 201.75 142.84 198.57 141.8Z" fill="#00A99D"/>
<path id="Vector_18" d="M165.79 123.65C161.321 127.518 157.946 132.49 156 138.07C152.55 147.61 161.18 163.21 161.18 163.21L174.62 152.59" fill="#006D62"/>
<path id="Vector_19" d="M155.22 175.67C155.126 177.564 155.596 179.443 156.57 181.07C157.816 183.041 159.701 184.524 161.91 185.27C164.662 186.203 167.569 186.594 170.47 186.42C176.47 186.03 181.64 183.25 186.01 179.42C185.18 168.87 182.2 161.51 179.66 157.91L163.4 150.06C163.5 150.06 160.23 156.6 160.08 156.95C158.405 160.859 157.112 164.922 156.22 169.08C155.678 171.24 155.343 173.447 155.22 175.67V175.67Z" fill="#3E2928"/>
<path id="Vector_20" d="M179.37 139.64L162.17 138.85L157.87 161.57C163 165.11 178.59 163.75 181.66 163.21C180.71 156.34 180.1 146.53 179.37 139.64Z" fill="#00A99D"/>
<path id="Vector_21" d="M179.54 129.78C180.876 127.947 181.83 125.864 182.346 123.655C182.861 121.445 182.927 119.155 182.54 116.92C181.89 112.38 179.38 108.61 174.54 107.79C167.04 106.53 161.59 112.86 161.71 119.94C161.77 123.89 162.2 126.56 159.29 128.21C156.38 129.86 154.29 134.21 157.05 137.69C159.81 141.17 157.33 139.92 155.48 143.02C153.63 146.12 154.11 150.02 157.91 151.42C161.71 152.82 179.36 150.19 180.98 148.54C181.557 147.881 181.854 147.024 181.81 146.15C181.396 143.95 180.198 141.975 178.44 140.59C177.01 139.385 175.831 137.91 174.97 136.25C173.56 133.34 177.88 131.91 179.54 129.78Z" fill="#F7931E"/>
<path id="Vector_22" d="M329.2 217.1L334.37 214.54L330.57 212.38L329.2 217.1Z" fill="#C46200"/>
<path id="Vector_23" d="M302.52 150.02L308.79 146.86L308.05 151.34L304.15 152.5" fill="#C46200"/>
<path id="Vector_24" d="M336.84 211.61L348.71 171.75C349.018 170.714 348.967 169.604 348.566 168.601C348.165 167.597 347.437 166.758 346.5 166.22L313.13 147.07C312.488 146.71 311.772 146.502 311.037 146.463C310.301 146.424 309.567 146.554 308.89 146.844C308.214 147.134 307.613 147.576 307.134 148.135C306.656 148.695 306.312 149.357 306.13 150.07L295.54 191.16C295.278 192.186 295.362 193.27 295.78 194.243C296.198 195.216 296.925 196.024 297.85 196.54L329.94 214.46C330.568 214.803 331.265 215 331.98 215.039C332.695 215.077 333.409 214.955 334.07 214.682C334.732 214.409 335.324 213.991 335.803 213.46C336.282 212.928 336.637 212.296 336.84 211.61Z" fill="#C46200"/>
<path id="Vector_25" d="M331.26 214.4L343.13 174.54C343.438 173.504 343.387 172.394 342.986 171.391C342.585 170.387 341.857 169.548 340.92 169.01L307.55 149.86C306.908 149.5 306.192 149.292 305.456 149.253C304.721 149.214 303.987 149.344 303.31 149.634C302.634 149.924 302.033 150.366 301.554 150.925C301.075 151.485 300.732 152.147 300.55 152.86L289.96 193.95C289.698 194.976 289.782 196.06 290.2 197.033C290.618 198.006 291.345 198.814 292.27 199.33L324.36 217.25C324.988 217.593 325.685 217.79 326.4 217.829C327.115 217.867 327.829 217.746 328.49 217.472C329.152 217.199 329.744 216.781 330.223 216.25C330.702 215.718 331.057 215.086 331.26 214.4V214.4Z" fill="#F7931E"/>
<path id="Vector_26" d="M313.19 175.74L312 179.29L304.16 179.72L309.8 185.87L308.61 189.42L299.34 179.09L300.16 176.62L313.19 175.74Z" fill="white"/>
<path id="Vector_27" d="M324.51 180.53L333.77 190.87L332.95 193.33L319.93 194.22L321.12 190.66L328.95 190.23L323.32 184.09L324.51 180.53Z" fill="white"/>
<path id="Vector_28" d="M321.65 176.51L324.05 177.52L312.08 193.71L309.69 192.69L321.65 176.51Z" fill="white"/>
<path id="Vector_29" d="M227.79 78.77V81.46L205.31 68.39V65.77L227.79 78.77Z" fill="#F7931E"/>
<path id="Vector_30" d="M292.5 116.18L230 80.0601V82.7601L292 118.76C292.17 117.91 292.33 117 292.5 116.18Z" fill="#00A99D"/>
<path id="Vector_31" d="M291 124.08L283.43 119.7V122.56L290.53 126.69C290.717 125.823 290.873 124.953 291 124.08Z" fill="#8CC63F"/>
<path id="Vector_32" d="M281.24 118.41V121.27L245.76 100.65V97.9L281.24 118.41Z" fill="#F7931E"/>
<path id="Vector_33" d="M243.52 96.6099V99.3499L220.31 85.8599V83.1899L243.52 96.6099Z" fill="#F15A24"/>
<path id="Vector_34" d="M218.08 81.9V84.56L205.31 77.14V74.52L218.08 81.9Z" fill="#8CC63F"/>
<path id="Vector_35" d="M289.55 131.89L229.31 97.0699V99.7699L289 134.45C289.18 133.6 289.37 132.75 289.55 131.89Z" fill="#00A99D"/>
<path id="Vector_36" d="M220.4 101.85V104.54L197.92 91.48V88.86L220.4 101.85Z" fill="#F7931E"/>
<path id="Vector_37" d="M285.12 139.27L222.64 103.15V105.85L284.64 141.85C284.79 141 284.95 140.13 285.12 139.27Z" fill="#00A99D"/>
<path id="Vector_38" d="M283.66 147.17L276.09 142.79V145.65L283.19 149.78C283.35 148.913 283.507 148.043 283.66 147.17Z" fill="#8CC63F"/>
<path id="Vector_39" d="M273.85 141.5V144.35L238.37 123.73V120.99L273.85 141.5Z" fill="#F7931E"/>
<path id="Vector_40" d="M236.14 119.7V122.43L212.93 108.95V106.28L236.14 119.7Z" fill="#F15A24"/>
<path id="Vector_41" d="M210.69 104.99V107.65L197.92 100.23V97.61L210.69 104.99Z" fill="#8CC63F"/>
<path id="Vector_42" d="M282.16 155L221.92 120.18V122.88L281.6 157.56C281.8 156.69 282 155.84 282.16 155Z" fill="#00A99D"/>
<g id="textTechJS">
<path id="Vector_43" d="M194.9 80.35L204.77 47.21C205.025 46.348 204.982 45.4254 204.648 44.5908C204.314 43.7563 203.709 43.0585 202.93 42.61L175.19 26.7C174.657 26.3962 174.061 26.219 173.449 26.1823C172.837 26.1455 172.224 26.25 171.659 26.4878C171.093 26.7256 170.59 27.0903 170.188 27.5536C169.786 28.017 169.496 28.5666 169.34 29.16L160.54 63.32C160.322 64.174 160.392 65.0761 160.739 65.8862C161.086 66.6964 161.691 67.3691 162.46 67.8L189.14 82.7C189.662 82.9878 190.242 83.1551 190.838 83.1897C191.433 83.2243 192.029 83.1253 192.581 82.9C193.133 82.6747 193.628 82.3288 194.029 81.8876C194.43 81.4464 194.728 80.921 194.9 80.35V80.35Z" fill="#066D0A"/>
<path id="Vector_44" d="M166.37 29.15L171.58 26.52L170.97 30.24L167.72 31.21" fill="#066D0A"/>
<path id="Vector_45" d="M188.55 84.91L192.84 82.79L189.69 80.99L188.55 84.91Z" fill="#066D0A"/>
<path id="Vector_46" d="M190.26 82.6701L200.13 49.5301C200.385 48.6681 200.342 47.7454 200.008 46.9109C199.674 46.0764 199.069 45.3786 198.29 44.9301L170.55 29.0001C170.017 28.6962 169.421 28.5191 168.809 28.4823C168.197 28.4455 167.584 28.55 167.019 28.7878C166.453 29.0256 165.95 29.3903 165.548 29.8537C165.146 30.3171 164.856 30.8667 164.7 31.4601L155.9 65.6201C155.682 66.474 155.752 67.3761 156.099 68.1863C156.446 68.9964 157.051 69.6692 157.82 70.1001L184.5 85.0001C185.021 85.2881 185.6 85.4562 186.194 85.4921C186.788 85.5279 187.383 85.4307 187.935 85.2074C188.487 84.9842 188.982 84.6405 189.384 84.2015C189.787 83.7626 190.086 83.2394 190.26 82.6701V82.6701Z" fill="#139E20"/>
<path id="Vector_47" d="M175.08 41.95L174.13 44.95L173 44.38C172.832 44.2811 172.643 44.2232 172.448 44.211C172.254 44.1988 172.059 44.2327 171.88 44.31C171.687 44.4084 171.519 44.5497 171.389 44.723C171.259 44.8963 171.17 45.0971 171.13 45.31L169.85 49.39C169.725 49.8081 169.54 50.2057 169.3 50.57C169.139 50.8349 168.92 51.0604 168.66 51.23C168.471 51.343 168.27 51.4336 168.06 51.5C167.92 51.5527 167.769 51.5732 167.62 51.56H167.45L167.59 51.71C167.694 51.846 167.788 51.9898 167.87 52.14C168.002 52.369 168.103 52.6145 168.17 52.87C168.237 53.1988 168.264 53.5346 168.25 53.87C168.239 54.332 168.162 54.7901 168.02 55.23L166.73 59.33C166.571 59.759 166.571 60.2309 166.73 60.66C166.884 61.0663 167.184 61.4011 167.57 61.6L168.71 62.19L167.71 65.19L166.01 64.3C164.91 63.7789 164.043 62.8661 163.58 61.74C163.154 60.5435 163.154 59.2364 163.58 58.04L165 53.75C165.169 53.2985 165.169 52.8014 165 52.35C164.821 51.9122 164.486 51.5561 164.06 51.35L164.93 48.56C165.11 48.6733 165.314 48.7432 165.526 48.764C165.738 48.7849 165.951 48.7561 166.15 48.68C166.345 48.5821 166.516 48.4413 166.649 48.2681C166.783 48.095 166.875 47.8939 166.92 47.68L168.27 43.38C168.392 42.8172 168.633 42.2873 168.978 41.8265C169.324 41.3657 169.764 40.9848 170.27 40.71C170.782 40.5182 171.332 40.4491 171.875 40.5081C172.419 40.5672 172.941 40.7527 173.4 41.05L175.08 41.95Z" fill="white"/>
<path id="Vector_48" d="M190 49.72C191.1 50.241 191.967 51.1539 192.43 52.28C192.857 53.4728 192.857 54.7771 192.43 55.97L191 60.26C190.831 60.7114 190.831 61.2086 191 61.66C191.181 62.0967 191.515 62.4523 191.94 62.66L191.07 65.45C190.891 65.3386 190.689 65.2691 190.48 65.2466C190.27 65.2241 190.058 65.2492 189.86 65.32C189.664 65.4184 189.492 65.5592 189.357 65.7322C189.223 65.9051 189.128 66.1059 189.08 66.32L187.74 70.61C187.62 71.1745 187.379 71.7064 187.034 72.169C186.688 72.6316 186.247 73.014 185.74 73.29C185.228 73.4817 184.678 73.5508 184.135 73.4918C183.591 73.4327 183.069 73.2472 182.61 72.95L180.91 72.06L181.91 69.06L183.04 69.65C183.207 69.7499 183.395 69.81 183.59 69.8256C183.784 69.8412 183.979 69.8119 184.16 69.74C184.345 69.6471 184.507 69.5148 184.635 69.3523C184.763 69.1899 184.853 69.0013 184.9 68.8L186.19 64.7C186.314 64.2786 186.5 63.8777 186.74 63.51C186.9 63.2469 187.119 63.0245 187.38 62.86C187.57 62.759 187.767 62.6721 187.97 62.6C188.115 62.5392 188.274 62.5185 188.43 62.54H188.58L188.44 62.4C188.339 62.2618 188.246 62.1183 188.16 61.97C188.023 61.7399 187.922 61.4904 187.86 61.23C187.793 60.9011 187.766 60.5653 187.78 60.23C187.791 59.768 187.869 59.3099 188.01 58.87L189.29 54.79C189.446 54.3536 189.446 53.8764 189.29 53.44C189.149 53.0112 188.848 52.6532 188.45 52.44L187.32 51.85L188.27 48.85L190 49.72Z" fill="white"/>
<path id="Vector_49" d="M185.29 53.73L179.86 57.95L181.63 66.23L178.32 64.5L177.16 59.35L173.55 62.01L170.25 60.29L175.99 55.93L174.35 48.02L177.78 49.81L178.67 54.54L181.87 51.94L185.29 53.73Z" fill="white"/>
</g>
</g>
</svg>
