<svg width="262" height="277" viewBox="0 0 262 277" fill="none" xmlns="http://www.w3.org/2000/svg">
<g id="html isometric 1">
<g id="Group">
<g id="Layer 2">
<path id="Vector" d="M5.3201 189L157.57 274.9C159.617 276.054 161.93 276.654 164.279 276.642C166.629 276.63 168.935 276.005 170.97 274.83L254.41 226.66C255.745 225.89 256.854 224.781 257.625 223.446C258.396 222.111 258.802 220.597 258.802 219.055C258.802 217.513 258.396 215.999 257.625 214.664C256.854 213.329 255.745 212.22 254.41 211.45L103.5 124.34C101.566 123.224 99.373 122.636 97.14 122.636C94.907 122.636 92.714 123.224 90.78 124.34L5.2501 173.73C3.904 174.502 2.7868 175.618 2.0122 176.963C1.2375 178.307 0.833202 179.833 0.840302 181.385C0.847402 182.937 1.2657 184.46 2.0527 185.797C2.8396 187.135 3.967 188.24 5.3201 189Z" fill="#FF952C"/>
<path id="Vector 2" d="M259.84 80.87L121.41 1.23998C120.792 0.885581 120.094 0.693182 119.382 0.680482C118.669 0.667782 117.965 0.835281 117.335 1.16748C116.704 1.49968 116.168 1.98568 115.775 2.58058C115.383 3.17538 115.147 3.85968 115.09 4.56998L106.24 114.95C105.81 120.31 112.86 122.95 116.77 125.11L130.62 132.8L170.68 155L213 178.56L240.65 193.92C241.65 194.5 242.75 195.07 243.79 195.66C244.399 196.003 245.084 196.19 245.783 196.204C246.482 196.217 247.174 196.057 247.796 195.738C248.418 195.419 248.951 194.951 249.348 194.376C249.745 193.8 249.993 193.135 250.07 192.44L261.93 85C262.021 84.183 261.871 83.3572 261.5 82.6238C261.129 81.8903 260.552 81.2809 259.84 80.87Z" fill="#172D51"/>
<path id="Vector 3" d="M36.2 115.33H29.01C28.049 115.33 27.27 116.109 27.27 117.07V184.33C27.27 185.291 28.049 186.07 29.01 186.07H36.2C37.161 186.07 37.94 185.291 37.94 184.33V117.07C37.94 116.109 37.161 115.33 36.2 115.33Z" fill="#BC532A"/>
<path id="Vector 4" d="M59 129.8C56.54 119.12 45.61 72.08 26.24 85.91C16.32 92.99 13.51 104.06 9.54003 114.91C6.25003 123.91 3.54003 133.31 3.37003 142.91C3.06003 162.48 22.97 164.91 38.2 164.8C46.98 164.8 59.52 159.57 61.57 150.04C62.81 144.29 60.7 137.51 59.47 131.87C59.283 131.183 59.127 130.493 59 129.8Z" fill="#2C9135"/>
<path id="Vector 5" d="M59.88 131.87C59.727 131.203 59.57 130.51 59.41 129.79C57.23 120.35 48.41 82.48 33.0301 83.41C37.6001 103.41 44.35 124.47 40.7501 144.9C39.5995 152.035 36.8098 158.806 32.6001 164.68C34.6001 164.78 36.6701 164.81 38.6001 164.8C47.38 164.8 59.92 159.57 61.97 150.04C63.22 144.29 61.11 137.51 59.88 131.87Z" fill="#156819"/>
<g id="textTech">
<path id="Vector 6" d="M240.23 217.87L234.53 220.33L213.56 207.93L149.81 244.74L144.38 242.04V247.87L171.5 263.91L240.23 223.69L240.18 223.66L240.23 223.68V217.87Z" fill="#55B8F3"/>
<path id="Vector 7" opacity="0.47" d="M240.23 217.87L234.53 220.33L213.56 207.93L149.81 244.74L144.38 242.04V247.87L171.5 263.91L240.23 223.69L240.18 223.66L240.23 223.68V217.87Z" fill="#2E90A0"/>
<path id="Vector 8" d="M144.38 242.04L171.5 258.09L240.23 217.87L213.56 202.11L144.38 242.04Z" fill="#55B8F3"/>
<path id="Vector 10" d="M157.23 241.18L160.46 239.29L166.23 243.44L172.67 239.66L166.9 235.52L170.11 233.64L184.53 243.98L181.31 245.87L175.44 241.65L169.01 245.43L174.88 249.64L171.65 251.53L157.23 241.18Z" fill="white"/>
<path id="Vector 11" d="M206.56 212.26L209.79 210.37L221.43 218.72L228.4 214.64L231.17 216.63L220.98 222.6L206.56 212.26Z" fill="white"/>
<path id="Vector 9" d="M172.46 232.25L184.26 225.34L187.04 227.34L182.76 229.85L194.39 238.19L191.18 240.08L179.55 231.74L175.25 234.25L172.46 232.25Z" fill="white"/>
<path id="Vector 12" d="M186.62 223.95L189.52 222.25L200.94 223.74L199.85 216.19L202.71 214.52L217.13 224.86L213.91 226.75L204.3 219.85L205.37 226.92L194.69 225.54L204.26 232.41L201.03 234.3L186.62 223.95Z" fill="white"/>
</g>
<path id="Vector 13" d="M159.85 48.72V52.31L129.83 34.86V31.36L159.85 48.72Z" fill="#F7931E"/>
<path id="Vector 14" d="M162.84 50.44L247.46 99.36V103.22L162.84 54.05V50.44Z" fill="#00A99D"/>
<path id="Vector 15" d="M234.22 103.39L247.46 111.04V114.9L234.22 107.21V103.39Z" fill="#8CC63F"/>
<path id="Vector 16" d="M231.24 101.67V105.47L183.85 77.94V74.27L231.24 101.67Z" fill="#F7931E"/>
<path id="Vector 17" d="M180.87 72.55V76.2L149.87 58.19V54.63L180.87 72.55Z" fill="#F15A24"/>
<path id="Vector 18" d="M146.89 52.9V56.46L129.83 46.55V43.04L146.89 52.9Z" fill="#8CC63F"/>
<path id="Vector 19" d="M161.89 73.16L246.51 122.08V125.94L161.89 76.76V73.16Z" fill="#00A99D"/>
<path id="Vector 20" d="M152.62 96V99.6L122.6 82.15V78.65L152.62 96Z" fill="#F7931E"/>
<path id="Vector 21" d="M155.61 97.73L240.23 146.65V150.51L155.61 101.33V97.73Z" fill="#00A99D"/>
<path id="Vector 22" d="M226.99 150.68L240.23 158.33V162.19L226.99 154.5V150.68Z" fill="#8CC63F"/>
<path id="Vector 23" d="M224.01 148.95V152.76L176.62 125.23V121.56L224.01 148.95Z" fill="#F7931E"/>
<path id="Vector 24" d="M173.64 119.83V123.49L142.65 105.48V101.92L173.64 119.83Z" fill="#F15A24"/>
<path id="Vector 25" d="M139.66 100.19V103.74L122.6 93.83V90.33L139.66 100.19Z" fill="#8CC63F"/>
<path id="Vector 26" d="M154.66 120.45L239.28 169.37V173.23L154.66 124.05V120.45Z" fill="#00A99D"/>
<path id="Vector 27" style="mix-blend-mode:multiply" d="M82.5301 230.28C86.8101 233.28 90.9401 236.48 95.0301 239.74L132.43 214.56L102.25 207.7L75.5601 225.7C77.9201 227.14 80.2501 228.67 82.5301 230.28Z" fill="url(#paint0_linear)"/>
<path id="Vector 28" d="M119.64 92.19C118.578 92.659 117.7 93.464 117.14 94.48V94.56C115.57 95.84 115.32 98.19 113.66 99.35C113.66 99.35 112.09 100.5 112.07 100.54C112.05 100.58 112.22 98.39 112.21 98.41C111.67 99.89 111.14 101.41 110.67 102.89C110.744 102.938 110.825 102.975 110.91 103L110.74 103.09L110.59 103.18C110.57 103.256 110.532 103.326 110.48 103.385C110.428 103.444 110.363 103.49 110.29 103.52C110.227 103.741 110.229 103.975 110.296 104.194C110.362 104.414 110.491 104.609 110.667 104.757C110.842 104.905 111.057 104.999 111.284 105.028C111.512 105.057 111.743 105.02 111.95 104.92L116.95 102.45C117.63 102.306 118.299 102.112 118.95 101.87C118.95 101.34 119.03 100.82 119.08 100.29C119.478 99.676 119.717 98.972 119.776 98.243C119.835 97.513 119.713 96.781 119.42 96.11L119.51 96.02V95.96C119.928 95.668 120.284 95.295 120.557 94.865C120.83 94.434 121.014 93.953 121.1 93.45C121.16 92.73 120.44 91.82 119.64 92.19Z" fill="#F7931E"/>
<path id="Vector 29" d="M104.68 203V207.57C104.68 207.57 114.33 203.99 116.19 205.57C118.97 207.95 111.03 212.72 102.89 214.31C101.324 214.763 99.669 214.812 98.08 214.45C95.67 213.61 96.6899 209.97 96.6799 208.1C96.6699 206.23 96.5799 204.17 96.5399 202.2" fill="#56403D"/>
<path id="Vector 30" d="M118.78 209.33V213.9C118.78 213.9 128.43 210.32 130.29 211.9C133.07 214.28 125.13 219.05 116.99 220.64C115.424 221.093 113.769 221.142 112.18 220.78C109.77 219.94 110.79 216.3 110.78 214.43C110.77 212.56 110.68 210.5 110.64 208.53" fill="#56403D"/>
<path id="Vector 31" d="M119 128.73C119 128.73 128.13 190.27 127.14 204.57C127.14 204.57 124.76 214.1 104.14 210.92C104.14 210.92 102.35 203.77 103.14 191.66C103.93 179.55 106.14 128.73 106.14 128.73H119Z" fill="#55B8F3"/>
<path id="Vector 32" d="M113.91 201.46L110.8 128L96.94 126.71C96.94 126.71 92.94 145.77 94.16 154.9C95.38 164.03 92.77 176.14 92.16 182.5C91.63 188.2 91.41 198.05 93.38 202.5C100.06 204.39 107.27 203.75 113.91 201.46Z" fill="#55B8F3"/>
<path id="Vector 33" d="M113.22 97C113.22 97 118.98 100.57 119.57 103.55C119.57 103.55 115.57 112.33 115.8 112.68C120.37 118.68 106.67 108.91 106.67 108.91C106.67 108.91 109.45 100.54 113.22 97Z" fill="#6DE2FC"/>
<path id="Vector 34" d="M126.32 99.15C126.8 103.15 121.72 108.66 119.58 109.73C116.65 111.19 115.51 99.01 102.58 99.06C101.75 99.06 97.58 97.28 95.37 102.77C93.16 108.26 95.37 124 96.83 126.77C98.12 129.19 106.71 135.01 118.98 128.77L119.16 123.1C119.16 123.1 126.4 122.94 130.23 117.62C133.8 112.62 135.93 105.2 135.59 101.54C132.75 100.27 129.17 98.21 126.32 99.15Z" fill="#6DE2FC"/>
<path id="Vector 35" d="M113.22 97C113.22 97 118.98 100.57 119.57 103.55C119.57 103.55 115.57 112.33 115.8 112.68C120.37 118.68 106.67 108.91 106.67 108.91C106.67 108.91 109.45 100.54 113.22 97Z" fill="#8787D1"/>
<path id="Vector 36" d="M122.6 78.65L136.25 85.25L133.67 106.69L119.05 100.31" fill="#55B8F3"/>
<path id="Vector 37" d="M136.74 94.3C136.702 94.129 136.627 93.968 136.52 93.829C136.414 93.689 136.279 93.574 136.124 93.492C135.97 93.409 135.799 93.361 135.624 93.35C135.449 93.34 135.274 93.367 135.11 93.43C135.04 93.125 134.867 92.853 134.62 92.66C134.422 92.511 134.183 92.425 133.934 92.415C133.686 92.404 133.441 92.469 133.23 92.6C133.095 92.676 132.973 92.774 132.87 92.89L132.8 92.8C132.632 92.604 132.408 92.462 132.159 92.395C131.909 92.327 131.645 92.336 131.4 92.42C131.256 92.487 131.127 92.583 131.02 92.7C130.878 92.001 130.698 91.31 130.48 90.63C130.28 89.95 129.94 88.69 129.1 88.54C128.55 88.44 128.3 88.84 128.19 89.31C128.055 89.626 128.034 89.98 128.13 90.31C128.168 90.77 128.235 91.228 128.33 91.68C128.4 92.33 128.47 92.97 128.53 93.62C128.418 93.619 128.311 93.663 128.23 93.74C127.828 94.036 127.531 94.453 127.382 94.929C127.233 95.406 127.239 95.917 127.4 96.39C127.767 97.742 128.273 99.052 128.91 100.3C128.935 100.356 128.972 100.406 129.018 100.447C129.064 100.488 129.117 100.518 129.176 100.537C129.234 100.556 129.296 100.562 129.357 100.556C129.418 100.55 129.477 100.531 129.53 100.5L129.59 100.74C129.607 100.852 129.663 100.954 129.748 101.027C129.833 101.101 129.942 101.142 130.055 101.142C130.168 101.142 130.277 101.101 130.362 101.027C130.448 100.954 130.504 100.852 130.52 100.74V100.65C130.568 100.687 130.622 100.714 130.68 100.73V101.25C130.68 101.73 131.45 101.73 131.59 101.33V101.71C131.65 102.24 132.49 102.19 132.52 101.71V101.28C132.598 101.276 132.674 101.255 132.743 101.219C132.812 101.183 132.873 101.132 132.92 101.07C133.002 101.173 133.12 101.241 133.25 101.26C133.314 101.312 133.39 101.345 133.472 101.356C133.553 101.366 133.635 101.354 133.71 101.32V101.44C133.752 101.565 133.838 101.67 133.953 101.735C134.067 101.799 134.202 101.819 134.33 101.79V101.95C134.33 102.55 135.33 102.63 135.27 102.03C135.27 100.823 135.237 99.617 135.17 98.41C135.223 98.386 135.27 98.352 135.31 98.31C136.37 97.29 137.21 95.67 136.74 94.3ZM131.69 93.39C131.731 93.371 131.775 93.361 131.82 93.361C131.865 93.361 131.909 93.371 131.95 93.39C131.925 93.427 131.905 93.468 131.89 93.51H131.61L131.69 93.39Z" fill="#F7931E"/>
<path id="Vector 38" d="M109.45 84.56C109.45 84.69 110.25 92.74 108.45 94.56C106.65 96.38 101.86 95.56 100.67 93.66C99.48 91.76 98.02 89.17 99.29 86.16C100.56 83.15 109.23 82.58 109.45 84.56Z" fill="#F7931E"/>
<path id="Vector 39" d="M106.87 89.8C106.932 89.658 106.952 89.502 106.927 89.349C106.903 89.197 106.834 89.054 106.73 88.94C106.177 88.257 105.408 87.7807 104.55 87.59C104.165 87.4955 103.758 87.545 103.406 87.7291C103.054 87.9132 102.782 88.219 102.64 88.59C102.09 90.42 105.05 90.95 106.26 91.11C106.471 91.107 106.673 91.022 106.823 90.873C106.972 90.723 107.057 90.521 107.06 90.31C107.066 90.122 106.998 89.939 106.87 89.8Z" fill="#FFE8E6"/>
<path id="Vector 40" d="M131.26 92.27C130.723 93.154 130.504 94.195 130.64 95.22C130.69 95.62 131.31 95.5 131.26 95.1C131.148 94.242 131.332 93.371 131.78 92.63C132 92.27 131.47 91.92 131.26 92.27Z" fill="#42210B"/>
<path id="Vector 41" d="M103.21 205.11C102.25 200.507 101.556 195.853 101.13 191.17C100.971 188.879 100.971 186.581 101.13 184.29C101.34 181.941 101.674 179.604 102.13 177.29C102.843 173.12 103.035 168.877 102.7 164.66C102.38 160.33 101.7 156.04 101.3 151.71C100.688 146.849 100.847 141.922 101.77 137.11C101.91 136.49 100.95 136.22 100.77 136.85C98.85 145.48 100.7 154.22 101.51 162.85C102.008 167.315 101.924 171.826 101.26 176.27C100.9 178.44 100.45 180.6 100.26 182.79C100.025 185.136 99.971 187.496 100.1 189.85C100.476 195.074 101.211 200.267 102.3 205.39C102.37 206 103.33 205.74 103.21 205.11Z" fill="white"/>
<path id="Vector 42" d="M126.32 99.15C126.8 103.15 121.72 108.66 119.58 109.73C116.65 111.19 115.51 99.01 102.58 99.06C101.75 99.06 97.58 97.28 95.37 102.77C93.16 108.26 95.37 124 96.83 126.77C98.12 129.19 106.71 135.01 118.98 128.77L119.16 123.1C119.16 123.1 126.4 122.94 130.23 117.62C133.8 112.62 135.93 105.2 135.59 101.54C132.75 100.27 129.17 98.21 126.32 99.15Z" fill="#8787D1"/>
<path id="Vector 43" d="M125.31 121.7C121.968 122.9 118.32 122.944 114.95 121.825C111.579 120.707 108.682 118.49 106.72 115.53C106.46 115.14 105.83 115.53 106.09 115.9C108.132 118.999 111.154 121.323 114.672 122.504C118.19 123.684 122.003 123.651 125.5 122.41C125.95 122.25 125.76 121.54 125.31 121.7Z" fill="white"/>
<path id="Vector 44" d="M118.07 108.37C117.411 106.852 116.44 105.489 115.22 104.37C113.82 103.09 112.08 102.28 110.62 101.08C110.33 100.84 109.9 101.26 110.2 101.5C111.58 102.63 113.2 103.42 114.57 104.58C115.869 105.708 116.895 107.117 117.57 108.7C117.71 109 118.22 108.72 118.07 108.37Z" fill="white"/>
<path id="Vector 45" d="M109.63 85.69L107.06 87C107.06 87 109.06 94.54 109.64 96.53C110.22 98.52 107.85 101.29 100.11 101.53C92.37 101.77 92.76 90.02 94.55 85.65C96.34 81.28 101.7 79.3 106.06 80.49C107.218 80.7158 108.241 81.3873 108.909 82.3598C109.576 83.3324 109.835 84.5283 109.63 85.69Z" fill="#B24D16"/>
</g>
</g>
</g>
<defs>
<linearGradient id="paint0_linear" x1="147.08" y1="197.62" x2="82.19" y2="232.59" gradientUnits="userSpaceOnUse">
<stop stop-color="#D4A397"/>
<stop offset="1" stop-color="white"/>
</linearGradient>
</defs>
</svg>
