<svg width="588" height="442" viewBox="0 0 588 442" fill="none" xmlns="http://www.w3.org/2000/svg">
<g id="html 1">
<g id="laptop">
<path id="Vector" d="M439.456 66.9777H151.292V254.636H439.456V66.9777Z" fill="#24285B"/>
<path id="Vector_2" d="M273.611 233.199L262.66 302.888H335.66L318.872 233.199H273.611Z" fill="#C9C9C9"/>
<path id="Vector_3" opacity="0.24" d="M299.145 390.478C425.113 390.478 527.23 370.319 527.23 345.452C527.23 320.586 425.113 300.427 299.145 300.427C173.177 300.427 71.0598 320.586 71.0598 345.452C71.0598 370.319 173.177 390.478 299.145 390.478Z" fill="#E6E6E6"/>
<path id="Vector_4" d="M348.669 290.674H246.005V313.069H348.669V290.674Z" fill="#E6E6E6"/>
<path id="Vector_5" d="M174.724 90.7426C177.509 90.7426 179.766 88.4801 179.766 85.6891C179.766 82.8981 177.509 80.6355 174.724 80.6355C171.94 80.6355 169.682 82.8981 169.682 85.6891C169.682 88.4801 171.94 90.7426 174.724 90.7426Z" fill="white"/>
<path id="Vector_6" d="M189.733 90.7426C192.518 90.7426 194.775 88.4801 194.775 85.6891C194.775 82.8981 192.518 80.6355 189.733 80.6355C186.948 80.6355 184.691 82.8981 184.691 85.6891C184.691 88.4801 186.948 90.7426 189.733 90.7426Z" fill="#118AB2"/>
<path id="Vector_7" d="M203.86 90.7426C206.644 90.7426 208.902 88.4801 208.902 85.6891C208.902 82.8981 206.644 80.6355 203.86 80.6355C201.075 80.6355 198.818 82.8981 198.818 85.6891C198.818 88.4801 201.075 90.7426 203.86 90.7426Z" fill="#FFD200"/>
<path id="Vector_8" d="M439.456 218.407H151.292V254.636H439.456V218.407Z" fill="#E6E6E6"/>
<path id="Vector_9" d="M298.498 246.4C303.938 246.4 308.347 241.981 308.347 236.529C308.347 231.077 303.938 226.658 298.498 226.658C293.059 226.658 288.649 231.077 288.649 236.529C288.649 241.981 293.059 246.4 298.498 246.4Z" fill="#A5A5A5"/>
<path id="Vector_10" d="M340.452 172.896H256.544V179.025H340.452V172.896Z" fill="#118AB2"/>
<path id="Vector_11" d="M377.834 189.014H293.927V195.143H377.834V189.014Z" fill="#FFD200"/>
<path id="Vector_12" d="M306.76 158.059H236.347V164.188H306.76V158.059Z" fill="#118AB2"/>
<path id="Vector_13" d="M391.814 158.059H321.401V164.188H391.814V158.059Z" fill="#118AB2"/>
<path id="Vector_14" d="M319.505 140.954H256.544V147.083H319.505V140.954Z" fill="#FFD200"/>
<path id="Vector_15" d="M398.84 140.954H335.88V147.083H398.84V140.954Z" fill="#FFD200"/>
<path id="Vector_16" d="M241.786 172.896H210.225V179.025H241.786V172.896Z" fill="white"/>
<path id="Vector_17" d="M273.214 189.014H241.653V195.143H273.214V189.014Z" fill="white"/>
<path id="Vector_18" d="M221.588 158.059H190.027V164.188H221.588V158.059Z" fill="white"/>
<path id="Vector_19" d="M221.588 111.369H190.027V117.498H221.588V111.369Z" fill="white"/>
<path id="Vector_20" d="M241.786 126.721H210.225V132.85H241.786V126.721Z" fill="white"/>
<path id="Vector_21" d="M319.505 126.721H256.544V132.85H319.505V126.721Z" fill="#FFD200"/>
<path id="Vector_22" d="M398.84 126.721H335.88V132.85H398.84V126.721Z" fill="#FFD200"/>
<path id="Vector_23" d="M241.786 140.954H210.225V147.083H241.786V140.954Z" fill="white"/>
<path id="Vector_24" d="M299.204 111.369H234.2V117.498H299.204V111.369Z" fill="#118AB2"/>
<path id="Vector_25" d="M358.959 111.369H312.801V117.498H358.959V111.369Z" fill="#118AB2"/>
<path id="Vector_26" d="M488.216 27.7723H378.716V103.222H488.216V27.7723Z" fill="#FFD200"/>
<path id="Vector_27" d="M418.759 80.3114C418.188 80.3128 417.634 80.1207 417.186 79.7662L400.766 66.7567C400.471 66.5163 400.233 66.2131 400.07 65.869C399.907 65.525 399.822 65.1487 399.822 64.7677C399.822 64.3867 399.907 64.0105 400.07 63.6664C400.233 63.3224 400.471 63.0191 400.766 62.7787L417.186 49.5187C417.712 49.0889 418.387 48.8862 419.063 48.9553C419.738 49.0244 420.359 49.3595 420.787 49.8871C421.216 50.4146 421.419 51.0912 421.35 51.7682C421.281 52.4451 420.946 53.0669 420.42 53.4967L406.484 64.7383L420.405 75.7735C420.815 76.1028 421.113 76.5511 421.259 77.0571C421.404 77.563 421.39 78.1017 421.217 78.599C421.045 79.0964 420.723 79.528 420.296 79.8346C419.869 80.1412 419.358 80.3078 418.832 80.3114H418.759Z" fill="white"/>
<path id="Vector_28" d="M448.482 80.3114C447.95 80.323 447.428 80.1661 446.99 79.863C446.552 79.5599 446.221 79.1261 446.044 78.6233C445.866 78.1205 445.851 77.5744 446.001 77.0627C446.152 76.551 446.459 76.0999 446.88 75.7735L460.801 64.7383L446.88 53.4967C446.358 53.0728 446.025 52.4582 445.954 51.7881C445.884 51.1181 446.082 50.4475 446.505 49.9239C446.928 49.4003 447.541 49.0665 448.21 48.9961C448.878 48.9256 449.547 49.1242 450.07 49.5482L466.475 62.8082C466.781 63.0476 467.029 63.3538 467.2 63.7035C467.371 64.0533 467.46 64.4373 467.46 64.8267C467.454 65.2092 467.364 65.5857 467.196 65.9295C467.028 66.2732 466.787 66.5758 466.49 66.8157L450.07 79.8252C449.612 80.1649 449.051 80.3366 448.482 80.3114Z" fill="white"/>
<path id="Vector_29" d="M426.726 80.3114C426.365 80.3127 426.008 80.2321 425.683 80.0757C425.379 79.939 425.106 79.7432 424.878 79.4998C424.651 79.2564 424.474 78.9702 424.358 78.6577C424.241 78.3452 424.188 78.0127 424.201 77.6795C424.214 77.3463 424.293 77.0189 424.433 76.7165L436.384 50.4617C436.51 50.1387 436.701 49.8449 436.945 49.5984C437.188 49.3518 437.479 49.1576 437.8 49.0278C438.121 48.8979 438.465 48.835 438.811 48.8431C439.157 48.8511 439.498 48.9298 439.812 49.0744C440.127 49.219 440.409 49.4264 440.64 49.684C440.872 49.9416 441.049 50.2438 441.16 50.5723C441.272 50.9008 441.315 51.2486 441.287 51.5944C441.26 51.9402 441.162 52.2766 441 52.5833L429.034 78.8233C428.832 79.2666 428.507 79.6424 428.098 79.9061C427.689 80.1699 427.213 80.3105 426.726 80.3114Z" fill="white"/>
<path id="Vector_30" d="M393.784 331.809H302.908H293.339H202.463L180.266 390.492H293.339H302.908H415.966L393.784 331.809Z" fill="#E6E6E6"/>
<path id="Vector_31" d="M338.879 341.578H290.854H283.592H210.269L197.759 380.709H283.592H290.854H352.947L338.879 341.578Z" fill="#C9C9C9"/>
<path id="Vector_32" opacity="0.42" d="M348.669 341.578L363.899 380.709H401.428L385.419 341.578H348.669Z" fill="#C9C9C9"/>
<path id="Vector_33" d="M180.266 390.492L188.381 401.395H406.44L415.966 390.492H180.266Z" fill="#C9C9C9"/>
</g>
<g id="flower">
<path id="Vector_34" opacity="0.58" d="M111.999 313.967C111.999 313.967 90.2727 308.074 85.5393 287.742C85.5393 287.742 119.217 280.92 120.173 315.735L111.999 313.967Z" fill="#118AB2"/>
<path id="Vector_35" opacity="0.73" d="M114.66 311.802C114.66 311.802 99.4896 287.742 112.852 265.2C112.852 265.2 138.459 281.51 127.081 311.816L114.66 311.802Z" fill="#118AB2"/>
<path id="Vector_36" d="M118.585 311.831C118.585 311.831 126.611 286.416 150.925 281.598C150.925 281.598 155.467 298.1 135.211 311.89L118.585 311.831Z" fill="#118AB2"/>
<path id="Vector_37" d="M102.827 311.256L107.222 341.46L134.975 341.578L139.062 311.404L102.827 311.256Z" fill="#24285B"/>
</g>
</g>
</svg>
