<svg width="400" height="300" viewBox="0 0 400 300" fill="none" xmlns="http://www.w3.org/2000/svg">
<g id="javascript_isometric 1">
<path id="Vector" d="M37 197C71.24 215.38 172 273.52 203.72 291.87C206.658 293.578 209.996 294.478 213.395 294.478C216.794 294.478 220.132 293.578 223.07 291.87L343.8 221.34C348.6 218.54 347.06 213.23 342.22 210.49L173.72 112.59C172.852 112.098 171.872 111.84 170.875 111.84C169.878 111.84 168.898 112.098 168.03 112.59L36.86 187.18C35.992 187.679 35.2732 188.402 34.7781 189.272C34.2829 190.143 34.0294 191.13 34.0437 192.131C34.0579 193.132 34.3395 194.112 34.8593 194.968C35.379 195.824 36.1181 196.525 37 197Z" fill="#ED6128"/>
<path id="Vector_2" d="M206.43 156.29L186.1 166.81C185.323 167.247 184.671 167.876 184.206 168.638C183.742 169.399 183.481 170.266 183.448 171.158C183.414 172.049 183.611 172.933 184.017 173.727C184.424 174.52 185.027 175.196 185.77 175.69L234 205.91C234.516 206.232 235.093 206.445 235.695 206.538C236.296 206.63 236.91 206.599 237.5 206.446C238.089 206.294 238.641 206.023 239.122 205.651C239.604 205.278 240.004 204.812 240.3 204.28L252 184.71" fill="#56403D"/>
<path id="Vector_3" d="M317.06 105.67L154.88 5.24998C150 2.24998 143.88 6.00998 143.88 12.06V116.53C143.862 117.65 144.128 118.756 144.652 119.746C145.177 120.735 145.943 121.576 146.88 122.19L319.82 229.44C322.44 231.06 325.71 229.03 325.71 225.79V121.79C325.755 118.59 324.985 115.431 323.472 112.61C321.958 109.79 319.752 107.402 317.06 105.67V105.67Z" fill="#6DE1FC"/>
<path id="Vector_4" d="M154.9 13.14L312.14 110.39C313.859 111.49 315.269 113.011 316.237 114.808C317.204 116.605 317.698 118.619 317.67 120.66V199C317.67 202.29 314.36 204.35 311.67 202.71L151.34 103.77C150.723 103.38 150.215 102.84 149.865 102.199C149.515 101.559 149.335 100.84 149.34 100.11V16.58C149.295 15.9093 149.434 15.2391 149.742 14.6414C150.049 14.0436 150.513 13.5409 151.085 13.1873C151.657 12.8336 152.314 12.6423 152.986 12.634C153.658 12.6257 154.32 12.8006 154.9 13.14V13.14Z" fill="#00275E"/>
<path id="Vector_5" d="M223.69 156C224.1 158.28 222.93 160.44 221.07 160.82C219.21 161.2 217.38 159.67 216.97 157.39C216.56 155.11 217.73 152.95 219.59 152.57C221.45 152.19 223.28 153.75 223.69 156Z" fill="#AB643C"/>
<g id="textTech">
<path id="Vector_6" d="M159.95 76.77L162.38 75.07L165.15 78.85L164.71 84.44L164.18 94.72L161.28 96.72L156.5 92.73L152.39 90.63L154.82 88.94L159.13 90.69L160.95 91.66" fill="#EF680C"/>
<path id="Vector_7" d="M166.07 77.38L165.55 91.07C165.47 93.12 164.86 94.45 163.7 95.07C162.54 95.69 161.07 95.39 159.27 94.27C158.355 93.6858 157.538 92.9601 156.85 92.12C156.248 91.4378 155.724 90.6897 155.29 89.89L154.82 88.98L157.13 87.76C157.177 87.8667 157.25 88.02 157.35 88.22C157.547 88.5748 157.778 88.9097 158.04 89.22C158.36 89.612 158.742 89.9497 159.17 90.22C159.431 90.4425 159.744 90.5944 160.08 90.6609C160.417 90.7274 160.764 90.7065 161.09 90.6C161.57 90.35 161.83 89.76 161.87 88.81L162.39 75.12L166.07 77.38Z" fill="#EF680C"/>
<path id="Vector_8" d="M200.82 99.09L193.67 115.27L189.73 112.81L184.11 88.65L188.05 91.11L191.9 108.85L196.89 96.64L200.82 99.09Z" fill="#EF680C"/>
<path id="Vector_9" d="M210.26 105L216.26 129.4L212.33 126.94L211 121.26L204.37 117.12L202.72 120.95L198.79 118.49L206.32 102.55L210.26 105ZM205.77 114.14L209.95 116.75L208.11 108.82L205.76 114.14" fill="#EF680C"/>
<path id="Vector_10" d="M178.59 85.2L184.59 109.6L180.66 107.14L179.37 101.47L172.74 97.33L171.08 101.16L167.15 98.7L174.68 82.76L178.59 85.2ZM174.09 94.34L178.28 97L176.44 89L174.09 94.31" fill="#EF680C"/>
<path id="Vector_11" d="M224.53 113.47C225.244 113.926 225.914 114.448 226.53 115.03C227.103 115.551 227.634 116.116 228.12 116.72C228.53 117.24 228.89 117.72 229.19 118.2C229.432 118.558 229.649 118.932 229.84 119.32L230.04 119.74L227.73 121.1C227.64 120.91 227.51 120.66 227.35 120.36C227.035 119.849 226.681 119.365 226.29 118.91C225.815 118.308 225.244 117.787 224.6 117.37C224.362 117.177 224.085 117.038 223.788 116.964C223.491 116.889 223.181 116.881 222.88 116.94C222.655 117.028 222.465 117.187 222.339 117.393C222.213 117.598 222.157 117.84 222.18 118.08C222.195 118.874 222.481 119.64 222.99 120.25C223.614 121.089 224.306 121.875 225.06 122.6C225.873 123.4 226.693 124.247 227.52 125.14C228.372 126.087 229.067 127.164 229.58 128.33C230.126 129.53 230.383 130.842 230.33 132.16C230.26 134.02 229.62 135.16 228.43 135.65C227.24 136.14 225.61 135.7 223.58 134.43C222.752 133.908 221.978 133.305 221.27 132.63C220.61 132.014 220.002 131.345 219.45 130.63C218.977 130.003 218.563 129.413 218.21 128.86C217.93 128.436 217.676 127.995 217.45 127.54L217.18 127.02L219.5 125.82C219.61 126.04 219.76 126.33 219.95 126.7C220.342 127.342 220.787 127.951 221.28 128.52C221.891 129.302 222.628 129.978 223.46 130.52C223.75 130.761 224.089 130.936 224.453 131.035C224.817 131.133 225.198 131.152 225.57 131.09C226.09 130.92 226.36 130.45 226.39 129.7C226.371 128.906 226.086 128.142 225.58 127.53C224.953 126.684 224.253 125.895 223.49 125.17C222.663 124.37 221.843 123.523 221.03 122.63C220.199 121.683 219.524 120.609 219.03 119.45C218.485 118.253 218.228 116.944 218.28 115.63C218.34 113.997 218.95 112.95 220.11 112.49C221.27 112.03 222.743 112.357 224.53 113.47Z" fill="#EF680C"/>
<path id="Vector_12" d="M242.58 124.76C243.503 125.333 244.361 126.003 245.14 126.76C245.875 127.45 246.545 128.207 247.14 129.02C247.647 129.74 248.097 130.423 248.49 131.07C248.798 131.566 249.075 132.08 249.32 132.61L249.58 133.21L247.14 134.49L246.95 134.05C246.87 133.86 246.69 133.52 246.42 133.05C246.143 132.546 245.835 132.058 245.5 131.59C245.095 131.048 244.651 130.536 244.17 130.06C243.66 129.532 243.089 129.065 242.47 128.67C240.863 127.663 239.497 127.457 238.37 128.05C237.243 128.643 236.643 129.883 236.57 131.77C236.577 133.775 237.072 135.748 238.013 137.518C238.954 139.288 240.312 140.803 241.97 141.93C242.526 142.29 243.133 142.567 243.77 142.75C244.239 142.894 244.73 142.951 245.22 142.92C245.56 142.884 245.895 142.814 246.22 142.71C246.458 142.638 246.679 142.519 246.87 142.36L247.07 142.19L249.19 146.32C249.096 146.417 248.992 146.504 248.88 146.58C248.594 146.758 248.289 146.902 247.97 147.01C247.489 147.193 246.983 147.301 246.47 147.33C245.771 147.334 245.076 147.229 244.41 147.02C243.486 146.753 242.607 146.352 241.8 145.83C239.03 144.029 236.782 141.533 235.28 138.59C233.662 135.825 232.823 132.674 232.85 129.47C232.957 126.57 233.957 124.657 235.85 123.73C237.743 122.803 239.987 123.147 242.58 124.76Z" fill="#EF680C"/>
<path id="Vector_13" d="M262.73 150.6L266.12 160.54L262.19 158.08L259.19 148.96L256 146.96L255.73 154.02L252 151.71L252.76 131.54L260.38 136.3C262.144 137.427 263.579 139 264.54 140.86C265.549 142.606 266.067 144.593 266.04 146.61C266.027 147.316 265.889 148.013 265.63 148.67C265.453 149.136 265.168 149.554 264.8 149.89C264.516 150.12 264.199 150.305 263.86 150.44C263.608 150.548 263.334 150.596 263.06 150.58L262.73 150.6ZM261.61 145.74C261.855 145.595 262.053 145.384 262.182 145.131C262.312 144.878 262.366 144.593 262.34 144.31C262.36 143.481 262.156 142.663 261.75 141.94C261.371 141.197 260.802 140.569 260.1 140.12L256.3 137.74L256.1 143.07L259.9 145.45C260.134 145.642 260.413 145.77 260.712 145.82C261.01 145.871 261.316 145.844 261.6 145.74" fill="#EF680C"/>
<path id="Vector_14" d="M273.88 144.75L273.12 164.92L269.43 162.61L270.19 142.44L273.88 144.75Z" fill="#EF680C"/>
<path id="Vector_15" d="M289.85 156.72C290.908 158.511 291.452 160.56 291.42 162.64C291.347 164.553 290.707 165.8 289.5 166.38C288.293 166.96 286.803 166.69 285.03 165.57L281.48 163.35L281.23 169.98L277.53 167.67L278.29 147.5L285.54 152.03C287.358 153.194 288.844 154.81 289.85 156.72ZM286.92 161.92C287.192 161.761 287.412 161.528 287.556 161.248C287.699 160.968 287.76 160.653 287.73 160.34C287.743 159.459 287.514 158.591 287.07 157.83C286.652 157.016 286.028 156.327 285.26 155.83L281.83 153.69L281.61 159.44L285 161.6C285.258 161.81 285.565 161.95 285.893 162.006C286.221 162.062 286.557 162.032 286.87 161.92" fill="#EF680C"/>
<path id="Vector_16" d="M306.77 165.3L306.63 169.2L301.72 166.13L301.11 182.41L297.43 180.1L298.04 163.84L293.12 160.76L293.27 156.86L306.77 165.3Z" fill="#EF680C"/>
<path id="Vector_17" d="M172.24 84.44L174.66 82.75L177.86 88.05L179.09 93.37L181.21 103.53L184.59 109.59L182.16 111.29L179.38 104.38L177.59 101.65L172.24 98.21L171.07 101.15L168.64 102.84V99.24" fill="#EF680C"/>
<path id="Vector_18" d="M181.69 90.35L184.11 88.65L187.9 92L189.59 101.59L190.18 107.42L193.25 105.49L194.46 98.33L196.89 96.64L199.12 100.66L197.98 104.91L193.67 115.27L191.24 116.97" fill="#EF680C"/>
<path id="Vector_19" d="M203.91 104.24L206.34 102.54L209.87 106.69L210.69 112.01L213.13 121.64L216.12 129.07L213.84 131.09L211.74 126.12L204.96 119.57L202.48 117.66L202.75 120.94L200.32 122.64" fill="#EF680C"/>
<path id="Vector_20" d="M227.65 121.43L230.07 119.74L226.8 117.47L224.13 116.73L221.78 116.96L221.37 119.08L223.13 123.03L228.66 132.56L228.98 135.38L226.04 137.34L222.58 132.83L220.93 129.65L217.23 127.04L214.8 128.74L223.8 134.9" fill="#EF680C"/>
<path id="Vector_21" d="M247.13 134.93L249.56 133.23L246.37 131.1L242.44 128.64L244.26 132.5" fill="#EF680C"/>
<path id="Vector_22" d="M233.68 136.7L237.99 140.53L244.81 144.74L249.19 146.27L246.76 147.97L242.26 146.47L237.65 144.09L235.14 140.74" fill="#EF680C"/>
<path id="Vector_23" d="M250.32 133.24L252.75 131.54L264.03 141.89L264.44 146.86L261.75 150.7L262.48 152.77L266.12 160.54L263.69 162.24L259.05 152.61L257.66 149.19L254.19 148.26L255.68 154.02L253.25 155.71" fill="#EF680C"/>
<path id="Vector_24" d="M267.76 144.14L270.19 142.44L273.54 146.46L271.66 158.56L273.12 164.92L270.7 166.61" fill="#EF680C"/>
<path id="Vector_25" d="M275.86 149.19L278.29 147.5L280.23 151.34L284.24 155.38L289 160.16L289.4 164.92L289.5 166.38L287.07 168.07L282.3 166.44L280.81 165.79L281.22 169.98L278.8 171.67" fill="#EF680C"/>
<path id="Vector_26" d="M290.84 158.56L293.27 156.86L305.98 166.37L306.63 169.2L304.2 170.89" fill="#EF680C"/>
<path id="Vector_27" d="M298.68 184.1L301.11 182.41L298.2 179.33" fill="#EF680C"/>
<path id="Vector_28" d="M163.65 79.08L163.13 92.77C163.05 94.82 162.44 96.15 161.28 96.77C160.12 97.39 158.65 97.09 156.85 95.97C155.935 95.3858 155.118 94.6601 154.43 93.82C153.828 93.1378 153.304 92.3897 152.87 91.59L152.4 90.68L154.71 89.46C154.757 89.5667 154.83 89.72 154.93 89.92C155.127 90.2749 155.358 90.6098 155.62 90.92C155.94 91.312 156.322 91.6497 156.75 91.92C157.011 92.1426 157.324 92.2944 157.66 92.3609C157.997 92.4275 158.344 92.4065 158.67 92.3C159.15 92.05 159.41 91.46 159.45 90.51L160 76.77L163.65 79.08Z" fill="#FFD899"/>
<path id="Vector_29" d="M186.35 96.17L189.47 110.54L194.46 98.33L198.39 100.79L191.24 116.97L187.31 114.51L181.69 90.35L185.62 92.81L186.35 96.17Z" fill="#FFD899"/>
<path id="Vector_30" d="M207.84 106.69L213.84 131.09L209.91 128.63L208.61 123L202 118.81L200.35 122.64L196.42 120.18L203.95 104.24L207.84 106.69ZM203.35 115.83L207.53 118.44L205.69 110.51L203.34 115.83" fill="#FFD899"/>
<path id="Vector_31" d="M176.16 86.89L182.16 111.29L178.23 108.83L176.94 103.16L170.3 99L168.64 102.83L164.71 100.37L172.24 84.43L176.16 86.89ZM171.66 96L175.85 98.62L174 90.72L171.66 96Z" fill="#FFD899"/>
<path id="Vector_32" d="M222.1 115.17C222.814 115.626 223.484 116.148 224.1 116.73C224.673 117.251 225.204 117.816 225.69 118.42C226.1 118.94 226.46 119.42 226.76 119.9C227.002 120.258 227.219 120.632 227.41 121.02L227.61 121.44L225.3 122.8C225.21 122.61 225.08 122.36 224.92 122.06C224.605 121.549 224.251 121.065 223.86 120.61C223.385 120.008 222.814 119.487 222.17 119.07C221.932 118.877 221.655 118.738 221.358 118.664C221.061 118.589 220.751 118.581 220.45 118.64C220.225 118.728 220.035 118.887 219.909 119.093C219.783 119.298 219.727 119.54 219.75 119.78C219.765 120.574 220.051 121.34 220.56 121.95C221.184 122.789 221.877 123.575 222.63 124.3C223.443 125.1 224.263 125.947 225.09 126.84C225.942 127.787 226.637 128.864 227.15 130.03C227.696 131.23 227.953 132.542 227.9 133.86C227.83 135.72 227.19 136.86 226 137.35C224.81 137.84 223.18 137.4 221.15 136.13C220.322 135.608 219.549 135.005 218.84 134.33C218.18 133.714 217.572 133.045 217.02 132.33C216.547 131.703 216.133 131.113 215.78 130.56C215.5 130.136 215.246 129.695 215.02 129.24L214.75 128.72L217.07 127.52C217.18 127.74 217.33 128.03 217.52 128.4C217.912 129.042 218.357 129.651 218.85 130.22C219.461 131.002 220.198 131.678 221.03 132.22C221.32 132.461 221.659 132.636 222.023 132.735C222.387 132.833 222.768 132.852 223.14 132.79C223.66 132.62 223.93 132.15 223.96 131.4C223.941 130.606 223.656 129.842 223.15 129.23C222.523 128.385 221.823 127.595 221.06 126.87C220.233 126.07 219.413 125.223 218.6 124.33C217.769 123.383 217.094 122.309 216.6 121.15C216.055 119.953 215.798 118.644 215.85 117.33C215.91 115.697 216.52 114.65 217.68 114.19C218.84 113.73 220.313 114.057 222.1 115.17Z" fill="#FFD899"/>
<path id="Vector_33" d="M240.16 126.45C241.083 127.023 241.941 127.693 242.72 128.45C243.455 129.14 244.125 129.897 244.72 130.71C245.227 131.43 245.677 132.113 246.07 132.76C246.378 133.256 246.655 133.77 246.9 134.3L247.16 134.9L244.72 136.18L244.53 135.74C244.45 135.55 244.27 135.21 244 134.74C243.723 134.236 243.415 133.748 243.08 133.28C242.675 132.738 242.231 132.226 241.75 131.75C241.24 131.222 240.669 130.755 240.05 130.36C238.443 129.353 237.077 129.147 235.95 129.74C234.823 130.333 234.223 131.573 234.15 133.46C234.157 135.465 234.652 137.438 235.593 139.208C236.534 140.978 237.892 142.493 239.55 143.62C240.106 143.98 240.713 144.257 241.35 144.44C241.819 144.584 242.31 144.641 242.8 144.61C243.14 144.574 243.475 144.504 243.8 144.4C244.038 144.328 244.259 144.209 244.45 144.05L244.65 143.88L246.77 148.01C246.676 148.107 246.572 148.194 246.46 148.27C246.174 148.448 245.869 148.592 245.55 148.7C245.069 148.883 244.563 148.991 244.05 149.02C243.351 149.024 242.656 148.919 241.99 148.71C241.066 148.443 240.187 148.042 239.38 147.52C236.61 145.719 234.362 143.223 232.86 140.28C231.242 137.515 230.403 134.364 230.43 131.16C230.537 128.26 231.537 126.347 233.43 125.42C235.323 124.493 237.567 124.837 240.16 126.45Z" fill="#FFD899"/>
<path id="Vector_34" d="M260.3 152.3L263.69 162.24L259.76 159.78L256.76 150.66L253.57 148.66L253.3 155.72L249.61 153.41L250.37 133.24L257.99 138C259.754 139.127 261.189 140.7 262.15 142.56C263.159 144.306 263.677 146.293 263.65 148.31C263.637 149.016 263.499 149.713 263.24 150.37C263.063 150.836 262.778 151.254 262.41 151.59C262.126 151.82 261.809 152.005 261.47 152.14C261.218 152.248 260.944 152.296 260.67 152.28L260.3 152.3ZM259.18 147.44C259.425 147.295 259.623 147.084 259.752 146.831C259.882 146.578 259.936 146.293 259.91 146.01C259.93 145.181 259.726 144.363 259.32 143.64C258.941 142.897 258.372 142.269 257.67 141.82L253.87 139.44L253.67 144.77L257.47 147.15C257.704 147.342 257.983 147.47 258.282 147.52C258.58 147.571 258.886 147.544 259.17 147.44" fill="#FFD899"/>
<path id="Vector_35" d="M271.46 146.44L270.7 166.61L267 164.31L267.76 144.14L271.46 146.44Z" fill="#FFD899"/>
<path id="Vector_36" d="M287.43 158.42C288.488 160.211 289.032 162.26 289 164.34C288.927 166.253 288.287 167.5 287.08 168.08C285.873 168.66 284.383 168.39 282.61 167.27L279 165L278.75 171.63L275.05 169.32L275.81 149.15L283.06 153.68C284.907 154.85 286.414 156.484 287.43 158.42ZM284.5 163.62C284.772 163.461 284.992 163.228 285.136 162.948C285.279 162.668 285.34 162.353 285.31 162.04C285.323 161.159 285.094 160.291 284.65 159.53C284.232 158.716 283.608 158.027 282.84 157.53L279.41 155.39L279.19 161.14L282.62 163.28C282.878 163.49 283.185 163.63 283.513 163.686C283.841 163.742 284.177 163.712 284.49 163.6" fill="#FFD899"/>
<path id="Vector_37" d="M304.35 167L304.2 170.89L299.3 167.83L298.68 184.1L295 181.8L295.61 165.53L290.69 162.45L290.84 158.56L304.35 167Z" fill="#FFD899"/>
</g>
<path id="Vector_38" d="M206.44 61.84V65.22L178.21 48.81V45.52L206.44 61.84Z" fill="#F7931E"/>
<path id="Vector_39" d="M209.25 63.47L288.82 109.47V113.1L209.25 66.85V63.47Z" fill="#00A99D"/>
<path id="Vector_40" d="M276.38 113.26L288.82 120.45V124.08L276.38 116.85V113.26Z" fill="#8CC63F"/>
<path id="Vector_41" d="M273.57 111.64V115.22L229.01 89.32V85.87L273.57 111.64Z" fill="#F7931E"/>
<path id="Vector_42" d="M226.2 84.25V87.69L197.05 70.75V67.4L226.2 84.25Z" fill="#F15A24"/>
<path id="Vector_43" d="M194.25 65.78V69.12L178.21 59.8V56.51L194.25 65.78Z" fill="#8CC63F"/>
<path id="Vector_44" d="M208.35 84.83L287.93 130.83V134.46L208.35 88.22V84.83Z" fill="#00A99D"/>
<path id="Vector_45" opacity="0.32" d="M189.58 224.54L143.91 253.4L98.25 229.25L150.51 203.36" fill="url(#paint0_linear)"/>
<path id="Vector_46" opacity="0.32" d="M59.7 190.11L137.88 236.59L166.68 215.51L80.1299 163.39" fill="url(#paint1_linear)"/>
<path id="Vector_47" d="M104.91 109.74L91.61 102.67L59.7 121.09V190.11L72.8499 197.71" fill="#EA6A4B"/>
<path id="Vector_48" d="M72.85 197.71C73.85 197.63 72.85 128.25 72.85 128.25L104.91 109.74V179.74L72.85 197.71Z" fill="#FF7F5C"/>
<path id="Vector_49" d="M104.91 122.8L73 140.75L59.7 133.97" stroke="#F2F2F2" stroke-width="0.25" stroke-miterlimit="10"/>
<path id="Vector_50" d="M104.91 140.75L73 158.7L59.7 151.93" stroke="#F2F2F2" stroke-width="0.25" stroke-miterlimit="10"/>
<path id="Vector_51" d="M104.91 156.91L73 174.86L59.7 168.09" stroke="#F2F2F2" stroke-width="0.25" stroke-miterlimit="10"/>
<path id="Vector_52" d="M104.91 173.22L73 191.17L59.7 184.4" stroke="#F2F2F2" stroke-width="0.25" stroke-miterlimit="10"/>
<path id="Vector_53" d="M72.8499 128.25L59.7 121.09L91.61 102.67L104.91 109.74L72.8499 128.25Z" fill="#FF886C"/>
<path id="Vector_54" d="M80.6929 131.258C81.1829 130.062 80.7764 128.763 79.7849 128.357C78.7935 127.951 77.5926 128.591 77.1026 129.787C76.6127 130.983 77.0192 132.282 78.0106 132.688C79.002 133.094 80.203 132.454 80.6929 131.258Z" fill="white"/>
<path id="Vector_55" d="M100.66 118.56L83.66 127.93C83.24 128.16 83.66 128.81 84.04 128.58L101.04 119.21C101.46 118.98 101.04 118.33 100.66 118.56Z" fill="#F2F2F2"/>
<path id="Vector_56" d="M80.6907 146.96C81.1807 145.765 80.7742 144.466 79.7828 144.06C78.7913 143.653 77.5904 144.294 77.1004 145.489C76.6105 146.685 77.017 147.984 78.0084 148.39C78.9999 148.796 80.2008 148.156 80.6907 146.96Z" fill="white"/>
<path id="Vector_57" d="M100.66 134.25L83.66 143.62C83.24 143.85 83.66 144.5 84.04 144.27L101.04 134.9C101.46 134.67 101.04 134.02 100.66 134.25Z" fill="#F2F2F2"/>
<path id="Vector_58" d="M80.6904 164.113C81.1804 162.917 80.7738 161.618 79.7824 161.212C78.791 160.806 77.59 161.446 77.1001 162.642C76.6101 163.837 77.0166 165.136 78.0081 165.542C78.9995 165.949 80.2004 165.308 80.6904 164.113Z" fill="white"/>
<path id="Vector_59" d="M100.66 151.41L83.66 160.78C83.24 161.01 83.66 161.66 84.04 161.43L101.04 152.06C101.46 151.83 101.04 151.18 100.66 151.41Z" fill="#F2F2F2"/>
<path id="Vector_60" d="M80.6879 179.686C81.1779 178.49 80.7714 177.191 79.78 176.785C78.7885 176.379 77.5876 177.019 77.0976 178.215C76.6077 179.411 77.0142 180.709 78.0056 181.115C78.9971 181.522 80.198 180.882 80.6879 179.686Z" fill="white"/>
<path id="Vector_61" d="M100.66 167L83.66 176.37C83.24 176.6 83.66 177.25 84.04 177.02L101.04 167.65C101.46 167.42 101.04 166.77 100.66 167Z" fill="#F2F2F2"/>
<path id="Vector_62" opacity="0.32" d="M227.88 276.19C231.587 272.93 235.509 269.923 239.62 267.19L192.14 236.58L144.91 249.7L211.06 289C216.73 284.84 222.44 280.68 227.88 276.19Z" fill="url(#paint2_linear)"/>
<path id="Vector_63" opacity="0.32" d="M268.44 207C272.19 203.91 274.23 205.66 278.44 203.07L222.35 169L184.6 174.68L275.86 235.86C281.53 231.63 263 211.49 268.44 207Z" fill="url(#paint3_linear)"/>
<path id="Vector_64" d="M179 243.08L178.09 242.39L178.9 231.56L183.67 231.73C183.67 231.73 183.43 236.36 184.45 237.49C185.47 238.62 188.33 238.07 188.6 238.18C188.87 238.29 190.78 237.88 191.6 238.81C192.42 239.74 188.5 241.96 186.51 242.28C185.148 242.455 183.767 242.408 182.42 242.14C182.42 242.14 182.19 239.34 181.49 239.56C180.79 239.78 180.49 242.71 180.49 242.71L179 243.08Z" fill="#9C4100"/>
<path id="Vector_65" d="M177.07 209C176.68 220.33 176.26 235.1 176.26 235.1C176.26 235.1 178.85 238.62 185.87 237.1C186.62 236.94 188.3 218.88 189.12 209.48C185.191 208.414 181.072 208.249 177.07 209V209Z" fill="#EFB420"/>
<path id="Vector_66" d="M191.45 252.38L190.54 251.69L191.35 240.86L196.12 241.03C196.12 241.03 195.88 245.66 196.9 246.79C197.92 247.92 200.78 247.37 201.05 247.48C201.32 247.59 203.23 247.18 204.05 248.11C204.87 249.04 200.95 251.26 198.96 251.58C197.598 251.755 196.217 251.707 194.87 251.44C194.87 251.44 194.64 248.64 193.94 248.86C193.24 249.08 192.94 252.01 192.94 252.01L191.45 252.38Z" fill="#653200"/>
<path id="Vector_67" d="M193.5 211C190.367 209.582 187.002 208.745 183.57 208.53C184.15 212.77 184.69 215.71 184.78 215.93C185.01 216.47 189.37 243.39 189.37 243.39C194.52 245.47 200.61 243.73 200.61 243.73C200.61 243.73 198.51 222.73 198.34 219.22C198.34 218.84 198.32 218.463 198.28 218.09C198.206 216.585 197.721 215.128 196.879 213.878C196.036 212.629 194.868 211.633 193.5 211V211Z" fill="#EFB420"/>
<path id="Vector_68" d="M161.84 217.29C161.84 217.29 170.57 209.39 177.07 208.97C183.57 208.55 192.83 215.29 192.07 219.21C191.31 223.13 178.9 231.55 178.9 231.55" fill="#EFB420"/>
<path id="Vector_69" d="M179.68 203.19L172.68 198.28C172.402 198.081 172.201 197.792 172.112 197.463C172.022 197.133 172.05 196.782 172.19 196.47L177.12 185.47C177.207 185.278 177.333 185.106 177.491 184.967C177.65 184.827 177.836 184.724 178.038 184.662C178.239 184.6 178.452 184.583 178.661 184.61C178.87 184.637 179.071 184.709 179.25 184.82L187.02 189.66C187.336 189.857 187.567 190.167 187.665 190.526C187.763 190.886 187.722 191.269 187.55 191.6L181.81 202.6C181.718 202.787 181.587 202.953 181.426 203.086C181.265 203.219 181.078 203.317 180.877 203.373C180.676 203.428 180.465 203.441 180.259 203.409C180.053 203.378 179.855 203.303 179.68 203.19V203.19Z" fill="#1784AA"/>
<path id="Vector_70" d="M179.06 202.81L172.06 197.9C171.782 197.701 171.581 197.412 171.492 197.083C171.402 196.753 171.43 196.402 171.57 196.09L176.5 185.09C176.587 184.898 176.713 184.726 176.871 184.587C177.03 184.447 177.216 184.344 177.418 184.282C177.619 184.22 177.832 184.203 178.041 184.23C178.25 184.257 178.451 184.329 178.63 184.44L186.4 189.28C186.716 189.477 186.947 189.787 187.045 190.146C187.143 190.506 187.102 190.889 186.93 191.22L181.19 202.22C181.098 202.407 180.967 202.573 180.806 202.706C180.645 202.839 180.458 202.937 180.257 202.993C180.056 203.048 179.845 203.061 179.639 203.029C179.433 202.998 179.235 202.923 179.06 202.81V202.81Z" fill="#29ABE2"/>
<path id="Vector_71" d="M180.22 202.14L172.4 196.61L177.53 185.2L186.22 190.62L180.22 202.14Z" fill="#00275E"/>
<path id="Vector_72" d="M176.6 190C174.01 191.42 169.96 193 167.24 194.91C166.8 195.21 166.15 196.25 166.58 196.1C166.4 196.31 168.18 197.01 168.01 197.24C167.95 197.32 169.16 196.65 169.23 196.68C170.255 197.225 171.446 197.367 172.57 197.08L173.02 196.75L173.13 196.68C173.15 196.648 173.178 196.62 173.21 196.6H173.28C173.293 196.536 173.328 196.48 173.38 196.44C173.98 195.97 175.29 195.72 175.43 194.93C175.406 194.72 175.342 194.516 175.24 194.33C175.201 194.288 175.18 194.232 175.18 194.175C175.18 194.118 175.201 194.062 175.24 194.02C175.289 193.784 175.29 193.54 175.244 193.303C175.197 193.066 175.104 192.841 174.97 192.64V192.64L175.12 192.46C175.826 191.963 176.495 191.415 177.12 190.82C177.191 190.755 177.238 190.666 177.25 190.57V190.57C177.253 190.543 177.253 190.517 177.25 190.49C177.254 190.41 177.239 190.33 177.205 190.257C177.171 190.184 177.12 190.12 177.056 190.072C176.991 190.023 176.916 189.991 176.837 189.979C176.757 189.966 176.676 189.974 176.6 190V190Z" fill="#E85454"/>
<path id="Vector_73" d="M175.28 192.84C175.09 192.34 174.8 192.32 174.35 192.51C173.445 192.917 172.581 193.409 171.77 193.98C171.63 194.07 171.77 194.29 171.91 194.2C172.42 193.85 174.6 192.2 175.04 192.95C175.48 193.7 174.04 194.15 173.61 194.36L172.03 195.2C171.88 195.28 172.03 195.5 172.17 195.42L173.17 194.9C173.162 194.926 173.162 194.954 173.17 194.98C173.256 195.093 173.357 195.194 173.47 195.28C173.382 195.411 173.326 195.56 173.307 195.717C173.288 195.873 173.306 196.032 173.36 196.18V196.24C172.926 196.697 172.35 196.995 171.727 197.086C171.103 197.176 170.466 197.055 169.92 196.74C169.79 196.64 169.61 196.83 169.74 196.93C170.348 197.309 171.071 197.457 171.779 197.349C172.487 197.241 173.133 196.883 173.6 196.34C173.761 196.317 173.916 196.266 174.06 196.19C174.526 196.028 174.945 195.753 175.28 195.39C175.368 195.238 175.414 195.066 175.414 194.89C175.414 194.714 175.368 194.542 175.28 194.39V194.39C175.342 194.33 175.391 194.259 175.424 194.18C175.458 194.101 175.475 194.016 175.475 193.93C175.475 193.844 175.458 193.759 175.424 193.68C175.391 193.601 175.342 193.53 175.28 193.47C175.348 193.265 175.348 193.044 175.28 192.84ZM175.17 195.16C175.002 195.395 174.774 195.582 174.51 195.7C174.34 195.8 173.94 196.08 173.77 196.04C173.44 195.96 173.64 195.52 173.77 195.33C173.955 195.259 174.128 195.157 174.28 195.03L174.91 194.63L175.12 194.47C175.182 194.575 175.218 194.693 175.227 194.814C175.236 194.936 175.216 195.057 175.17 195.17V195.16ZM174.37 194.68C174.01 194.9 173.72 195.18 173.37 194.79C173.87 194.53 174.37 194.27 174.85 193.98C174.995 193.897 175.121 193.785 175.22 193.65C175.5 194.1 174.63 194.52 174.37 194.69V194.68Z" fill="#653200"/>
<path id="Vector_74" d="M168.86 193C168.86 193 170.61 193.39 170.74 197.06L169.43 200.31L162.32 196.62C162.32 196.62 164 194.48 168.86 193Z" fill="#FF9292"/>
<path id="Vector_75" d="M185.71 194.71C185.18 195.88 184.65 196.94 184.21 198.14C183.88 197.35 183.58 196.7 183.21 195.94C183.192 195.915 183.172 195.892 183.15 195.87C183.079 195.75 182.968 195.659 182.838 195.611C182.707 195.562 182.564 195.56 182.432 195.605C182.3 195.649 182.187 195.737 182.112 195.855C182.037 195.972 182.005 196.112 182.02 196.25C182.147 196.969 182.431 197.652 182.85 198.25C182.791 198.281 182.737 198.322 182.69 198.37C181.69 199.51 181.91 201.25 182.03 202.65C182.036 202.742 182.066 202.83 182.116 202.907C182.166 202.984 182.234 203.047 182.316 203.09C182.397 203.133 182.487 203.155 182.579 203.153C182.671 203.151 182.761 203.126 182.84 203.08C182.938 203.082 183.035 203.058 183.12 203.01C184.041 202.375 184.699 201.425 184.97 200.34C185.57 198.57 186.31 196.6 185.71 194.71Z" fill="#E85454"/>
<path id="Vector_76" d="M159.17 194.63L161.74 193.87C162.38 193.96 167.94 196.23 170.25 200.19C170.532 201.397 170.722 202.624 170.82 203.86C171.03 205.51 171.2 207.16 171.28 208.86C171.389 210.666 171.362 212.478 171.2 214.28C171.12 215.05 171.07 215.44 170.94 216.2C170.644 216.459 170.306 216.666 169.94 216.81C162.23 219.49 156.57 215.15 156.34 214.53C156.11 213.91 155.74 205.01 155.56 199.72C155.511 198.591 155.84 197.478 156.494 196.557C157.147 195.635 158.089 194.957 159.17 194.63V194.63Z" fill="#FF9292"/>
<path id="Vector_77" d="M166 185.46C166 185.46 167.73 194.17 164.52 195.11C161.31 196.05 157.52 192.42 157.26 190.63C157 188.84 161.47 182.56 166 185.46Z" fill="#E85454"/>
<path id="Vector_78" d="M164.73 188.95C164.83 188.8 166.67 188.32 167.06 186.76C167.45 185.2 166.06 183.17 162.83 182.87C159.6 182.57 154.23 184.33 155.06 192.78C155.89 201.23 164.4 197.6 164.95 194.9C165.245 192.92 165.171 190.903 164.73 188.95V188.95Z" fill="#653200"/>
<path id="Vector_79" d="M164.73 188.95C164.73 188.95 165.27 191.84 166.44 193.08C167.61 194.32 168.56 196.58 167.12 198.3C165.68 200.02 167.12 200.96 169.12 202.61C171.12 204.26 169.9 210.96 162.58 209.32C158.433 208.508 154.657 206.383 151.81 203.26C151.81 203.26 153.69 190.1 155.68 187.01" fill="#653200"/>
<path id="Vector_80" d="M170.27 200.31C170.27 200.31 171.93 205.86 173.58 206.03C175.23 206.2 177.75 203.75 179.51 200.55C180.14 200.49 180.776 200.559 181.378 200.753C181.981 200.946 182.538 201.261 183.014 201.678C183.491 202.095 183.877 202.604 184.15 203.175C184.422 203.747 184.576 204.367 184.6 205C184.6 205 178.77 216.82 170.27 213.93" fill="#FF9292"/>
<path id="Vector_81" d="M139.73 242.63C134.617 235.999 131.96 227.8 132.21 219.43C132.267 212.67 134.911 206.19 139.6 201.32C143.91 196.9 150.42 194.72 156.19 197.72C160.98 200.21 163.3 204.98 164.97 209.87C166.97 215.72 167.65 223.23 174.78 225.04C177.55 225.74 180.45 225.26 183.3 225.04C188.3 224.7 193.51 226.31 195.05 231.61C197.82 241.09 185.05 249.18 177.9 252.24C171.697 254.79 164.866 255.397 158.31 253.979C151.755 252.561 145.785 249.186 141.19 244.3C140.683 243.773 140.197 243.217 139.73 242.63Z" fill="#6DE1FC"/>
<path id="Vector_82" opacity="0.36" d="M194.81 231.76C189.74 240.93 173.23 245.07 164.23 244.61C156.06 244.19 150.9 239.2 151.45 230.93C151.76 226.39 153.2 221.86 152.79 217.29C152.1 209.5 144.7 203.11 137.15 204.63C133.94 209.101 132.194 214.456 132.15 219.96C131.899 228.33 134.557 236.528 139.67 243.16C140.137 243.74 140.623 244.307 141.13 244.86C145.725 249.746 151.695 253.121 158.25 254.539C164.806 255.957 171.637 255.35 177.84 252.8C185.01 249.74 197.76 241.65 194.99 232.17C194.91 232 194.86 231.9 194.81 231.76Z" fill="#00275E"/>
</g>
<defs>
<linearGradient id="paint0_linear" x1="133.07" y1="242.32" x2="148.64" y2="220.17" gradientUnits="userSpaceOnUse">
<stop stop-color="white" stop-opacity="0"/>
<stop offset="1" stop-color="#D43500"/>
</linearGradient>
<linearGradient id="paint1_linear" x1="134.85" y1="216.75" x2="68.97" y2="174.35" gradientUnits="userSpaceOnUse">
<stop stop-opacity="0"/>
<stop offset="0.99" stop-color="#1A1A1A"/>
</linearGradient>
<linearGradient id="paint2_linear" x1="3488.17" y1="14721.8" x2="7238.75" y2="10359.9" gradientUnits="userSpaceOnUse">
<stop stop-opacity="0"/>
<stop offset="0.99" stop-color="#1A1A1A"/>
</linearGradient>
<linearGradient id="paint3_linear" x1="-1366.57" y1="14616.1" x2="4577.38" y2="9245.88" gradientUnits="userSpaceOnUse">
<stop stop-opacity="0"/>
<stop offset="0.99" stop-color="#1A1A1A"/>
</linearGradient>
</defs>
</svg>
