<svg width="400" height="300" viewBox="0 0 400 300" fill="none" xmlns="http://www.w3.org/2000/svg">
<g id="html_isometric 1" clip-path="url(#clip0)">
<g id="password 1">
<g id="Group">
<g id="Layer 2">
<path id="Vector" d="M371.54 186.84L250.54 116.46C249.67 115.958 248.684 115.694 247.68 115.694C246.676 115.694 245.69 115.958 244.82 116.46L63.83 220C62.9575 220.501 62.2326 221.224 61.7285 222.094C61.2244 222.965 60.959 223.954 60.959 224.96C60.959 225.966 61.2244 226.955 61.7285 227.826C62.2326 228.696 62.9575 229.419 63.83 229.92L179.56 296.74C182.4 298.38 185.621 299.243 188.9 299.243C192.179 299.243 195.4 298.38 198.24 296.74L371.54 196.74C372.408 196.237 373.128 195.516 373.629 194.647C374.13 193.778 374.394 192.793 374.394 191.79C374.394 190.787 374.13 189.802 373.629 188.933C373.128 188.064 372.408 187.343 371.54 186.84V186.84Z" fill="#608A46"/>
<path id="Vector_2" style="mix-blend-mode:multiply" opacity="0.63" d="M295.47 215.88L192.13 274.05L123 232.49L226.85 172.31L295.47 215.88Z" fill="url(#paint0_linear)"/>
<path id="Vector_3" d="M234.73 33.48C248.43 41.59 282.32 61.66 292.45 67.54C293.314 68.0413 294.03 68.7624 294.526 69.63C295.021 70.4977 295.278 71.481 295.27 72.48V211.64C295.48 214.48 292.27 217.1 289.66 215.64L232.66 183.2C230.37 181.89 228.91 180.04 228.91 177.39V36.8C228.908 36.1187 229.086 35.4491 229.428 34.8594C229.769 34.2698 230.26 33.7812 230.852 33.4437C231.444 33.1061 232.115 32.9316 232.796 32.938C233.477 32.9444 234.145 33.1314 234.73 33.48Z" fill="#55B8F3"/>
<path id="Vector_4" d="M229.29 35.13L247.43 45.6V49.47C247.43 49.7964 247.516 50.1169 247.679 50.3995C247.843 50.6821 248.077 50.9168 248.36 51.08L262.23 59.08C262.418 59.1874 262.631 59.2432 262.847 59.2419C263.064 59.2406 263.276 59.1823 263.463 59.0727C263.649 58.9632 263.804 58.8063 263.91 58.6179C264.017 58.4296 264.072 58.2164 264.07 58V55.21L290.07 70.48C290.319 70.6247 290.525 70.8318 290.669 71.0809C290.813 71.33 290.889 71.6124 290.89 71.9V211C290.897 211.201 290.849 211.399 290.752 211.575C290.656 211.751 290.514 211.898 290.341 212C290.168 212.102 289.971 212.156 289.77 212.156C289.57 212.156 289.373 212.102 289.2 212L228.87 177C228.771 178.079 228.966 179.165 229.434 180.142C229.903 181.119 230.627 181.951 231.53 182.55C234.66 184.55 289.62 215.64 289.62 215.64C289.62 215.64 293.97 217.64 295.23 212.42V72.49C295.232 71.585 295.019 70.6926 294.608 69.886C294.198 69.0794 293.602 68.3816 292.87 67.85C290.4 66 234.73 33.48 234.73 33.48C234.267 33.2202 233.756 33.0566 233.228 32.9992C232.7 32.9417 232.166 32.9915 231.658 33.1456C231.15 33.2997 230.679 33.555 230.272 33.896C229.865 34.237 229.531 34.6567 229.29 35.13Z" fill="#124577"/>
<path id="Vector_5" style="mix-blend-mode:multiply" d="M135 210.62C136.42 211.94 139.33 207.27 141.1 207.9C143.829 208.855 146.682 209.411 149.57 209.55C152.25 209.854 154.955 209.26 157.26 207.86C158.296 207.094 159.128 206.087 159.686 204.926C160.244 203.765 160.51 202.485 160.461 201.198C160.411 199.911 160.048 198.655 159.403 197.54C158.759 196.425 157.851 195.485 156.76 194.8L159.9 193.24L170.54 200.64C170.54 200.64 169.66 216.21 140.9 214.03L107.43 233.08L98.88 226.62L135 210.62Z" fill="url(#paint1_linear)"/>
<path id="Vector_6" d="M131.5 200.64C131.5 194.64 138.72 189.99 147.94 189.99C157.16 189.99 164.38 194.67 164.38 200.64C164.38 206.61 157.16 211.29 147.94 211.29C138.72 211.29 131.5 206.61 131.5 200.64ZM136.21 200.64C136.21 203.45 141.03 206.58 147.94 206.58C154.85 206.58 159.67 203.45 159.67 200.64C159.67 197.83 154.85 194.7 147.94 194.7C141.03 194.7 136.21 197.83 136.21 200.64Z" fill="white"/>
<path id="Vector_7" d="M136.61 205.08C136.07 204.59 113.49 218.08 113.49 218.08L98.88 226.57L102.06 229.03C102.457 229.337 102.936 229.518 103.436 229.552C103.936 229.586 104.436 229.47 104.87 229.22L140 208.93L136.61 205.08Z" fill="white"/>
<path id="Vector_8" d="M99.2499 220.78L105.18 224.72L102.06 229.08L95.6999 225.08C95.6474 224.049 95.9827 223.036 96.6397 222.24C97.2968 221.445 98.228 220.924 99.2499 220.78V220.78Z" fill="white"/>
<path id="Vector_9" d="M106.3 216.3C106.71 215.95 107.189 215.688 107.705 215.531C108.221 215.375 108.764 215.326 109.3 215.39L115 219.14L111.88 223.5L104.88 219.09C104.983 218.014 105.491 217.017 106.3 216.3V216.3Z" fill="white"/>
<g id="textTechJS">
<path id="Vector_10" d="M154.07 73L146.07 68.51C146.07 68.51 138.55 76.03 118.38 66.51C118.38 66.51 106.64 89.51 91.14 100.67C91.14 100.67 90.23 142.61 113.33 150.38" fill="#55B8F3"/>
<path id="Vector_11" opacity="0.51" d="M154.07 73L146.07 68.51C146.07 68.51 138.55 76.03 118.38 66.51C118.38 66.51 106.64 89.51 91.14 100.67C91.14 100.67 90.23 142.61 113.33 150.38" fill="#124577"/>
<path id="Vector_12" d="M98.07 105C109.44 95.4485 118.711 83.6478 125.3 70.34C129.467 73.209 134.3 74.9603 139.338 75.426C144.375 75.8918 149.448 75.0564 154.07 73C154.07 73 151.5 108.39 143.36 125.75C135.22 143.11 133.61 145.87 126.07 154.17C126.07 154.17 116.59 156.25 108.63 145.49C97.5 130.51 98.07 105 98.07 105Z" fill="#55B8F3"/>
<path id="Vector_13" d="M124 122.17C122.293 119.163 120.653 116.127 119.08 113.06C118.845 112.586 118.49 112.183 118.049 111.89C117.608 111.598 117.098 111.428 116.57 111.396C116.042 111.365 115.515 111.473 115.043 111.711C114.57 111.949 114.169 112.307 113.88 112.75V112.81C113.568 113.26 113.386 113.787 113.353 114.334C113.319 114.88 113.436 115.425 113.69 115.91C115.32 119.06 116.99 122.18 118.69 125.27C120.66 128.71 126 125.62 124 122.17Z" fill="white"/>
<path id="Vector_14" d="M118.93 122.25C125.235 112.438 131 102.289 136.2 91.85C137.96 88.31 143.26 91.42 141.5 94.95C136.3 105.389 130.535 115.538 124.23 125.35C122.11 128.66 116.79 125.59 118.93 122.25Z" fill="white"/>
</g>
<path id="Vector_15" d="M267.68 134.17C267.68 134.17 274.36 129.83 274.42 129.78C274.48 129.73 269.97 126.29 269.97 126.29L267.33 131.24" fill="#3A270B"/>
<path id="Vector_16" d="M241.76 81.84L247.72 77.95L249.19 85.82L243.16 84.59" fill="#3A270B"/>
<path id="Vector_17" d="M250 77.76C249.681 77.5758 249.32 77.4778 248.951 77.4757C248.583 77.4737 248.221 77.5676 247.9 77.7483C247.579 77.9289 247.31 78.1901 247.121 78.506C246.932 78.822 246.828 79.1818 246.82 79.55L246.16 113.14C246.16 113.661 246.296 114.172 246.553 114.625C246.811 115.077 247.182 115.454 247.63 115.72L271.26 129.81C271.716 130.085 272.237 130.234 272.769 130.241C273.302 130.248 273.827 130.114 274.29 129.851C274.753 129.588 275.138 129.207 275.405 128.747C275.672 128.286 275.812 127.763 275.81 127.23V94.38C275.812 93.8403 275.667 93.3103 275.393 92.8456C275.118 92.381 274.723 91.9991 274.25 91.74L250 77.76Z" fill="#3A270B"/>
<path id="Vector_18" d="M243.67 81.94C243.351 81.7558 242.99 81.6578 242.621 81.6557C242.253 81.6537 241.891 81.7476 241.57 81.9283C241.249 82.1089 240.98 82.3701 240.791 82.686C240.602 83.002 240.498 83.3618 240.49 83.73L239.83 117.32C239.83 117.841 239.966 118.352 240.223 118.805C240.481 119.257 240.852 119.634 241.3 119.9L264.94 134C265.396 134.275 265.917 134.424 266.449 134.431C266.982 134.438 267.507 134.304 267.97 134.041C268.433 133.778 268.818 133.397 269.085 132.937C269.352 132.476 269.492 131.953 269.49 131.42V98.57C269.491 98.0303 269.347 97.5003 269.073 97.0356C268.798 96.571 268.403 96.1891 267.93 95.93L243.67 81.94Z" fill="#7D0000"/>
<path id="Vector_19" d="M254.256 110.226C257.058 110.002 259.042 106.215 258.687 101.767C258.332 97.3184 255.773 93.8934 252.971 94.1169C250.169 94.3404 248.185 98.1277 248.539 102.576C248.894 107.024 251.453 110.449 254.256 110.226Z" fill="#55B8F3"/>
<path id="Vector_20" d="M253.4 103.31H252.4C251.616 103.31 250.98 103.946 250.98 104.73V117.84C250.98 118.624 251.616 119.26 252.4 119.26H253.4C254.184 119.26 254.82 118.624 254.82 117.84V104.73C254.82 103.946 254.184 103.31 253.4 103.31Z" fill="#55B8F3"/>
<path id="Vector_21" d="M266.63 92.79C267.978 92.79 269.07 92.1318 269.07 91.32C269.07 90.5081 267.978 89.85 266.63 89.85C265.282 89.85 264.19 90.5081 264.19 91.32C264.19 92.1318 265.282 92.79 266.63 92.79Z" fill="white"/>
<path id="Vector_22" d="M259.23 65.33C247.8 62.58 247.89 75.81 247.89 75.81V80.54C247.806 81.2324 247.87 81.9348 248.08 82.6C248.359 82.8815 248.696 83.0996 249.067 83.2394C249.438 83.3791 249.834 83.4373 250.23 83.41C250.91 83.41 251.89 83.3 252.23 82.68C252.416 82.1029 252.474 81.4919 252.4 80.89C252.33 79.79 252.31 78.68 252.35 77.58C252.42 75.2 252.63 72.3 254.16 70.35C254.662 69.7357 255.349 69.3003 256.119 69.1092C256.888 68.9182 257.699 68.9816 258.43 69.29C264.3 71.24 264.14 78.29 264.14 78.29V91.29H269.02V77.95C269.02 77.95 268.15 67.47 259.23 65.33Z" fill="white"/>
<path id="Vector_23" d="M226.11 135.16C226.212 134.995 226.264 134.804 226.26 134.61C226.267 133.657 226.076 132.713 225.701 131.837C225.326 130.962 224.774 130.173 224.08 129.52C223.808 129.274 223.484 129.094 223.131 128.993C222.779 128.893 222.408 128.875 222.047 128.941C221.687 129.006 221.346 129.154 221.052 129.372C220.758 129.591 220.517 129.874 220.35 130.2C218.83 133.31 222.3 136.44 225.08 136.81C225.85 136.91 226.16 136.26 226.08 135.65C226.128 135.491 226.138 135.323 226.11 135.16V135.16Z" fill="#FBB5AD"/>
<path id="Vector_24" d="M223.35 189L217.76 185.89L222.41 198.62L223.35 189Z" fill="#382624"/>
<path id="Vector_25" d="M274.21 114.69C274.17 114.591 274.12 114.497 274.06 114.41C274.288 114.195 274.465 113.932 274.577 113.639C274.69 113.347 274.735 113.032 274.71 112.72C274.685 112.523 274.621 112.333 274.522 112.161C274.422 111.989 274.289 111.839 274.13 111.72C274.275 111.552 274.365 111.342 274.387 111.121C274.409 110.9 274.362 110.677 274.253 110.483C274.143 110.29 273.977 110.134 273.776 110.039C273.575 109.944 273.349 109.912 273.13 109.95C271.56 110.26 270.52 112.33 269.67 113.55C269.05 114.45 268.46 115.38 267.91 116.33C267.81 114.97 267.63 113.61 267.52 112.33C267.41 111.05 265.43 110.97 265.44 112.33C265.552 114.374 265.339 116.423 264.81 118.4C264.604 118.504 264.418 118.643 264.26 118.81C258.418 124.953 251.098 129.494 243 132C242.624 132.162 242.306 132.436 242.091 132.785C241.875 133.133 241.772 133.539 241.795 133.948C241.818 134.357 241.966 134.75 242.219 135.072C242.472 135.394 242.818 135.631 243.21 135.75C243.237 136.142 243.384 136.516 243.631 136.822C243.878 137.128 244.213 137.35 244.59 137.46C244.647 137.758 244.765 138.041 244.937 138.291C245.109 138.54 245.332 138.751 245.59 138.91L244.23 139.51C242 140.44 242.98 144.13 245.23 143.18C253.732 139.642 261.2 134.011 266.94 126.81C267.6 126.18 268.25 125.55 268.94 124.89C269.94 123.89 274.79 119.01 273.59 116.89C273.95 116.17 274.57 115.62 274.21 114.69Z" fill="#FBB5AD"/>
<path id="Vector_26" d="M240.65 92C238.37 92.91 236.65 97.81 236.81 98.84L238.6 98L238.92 97.65C239.235 95.6962 239.817 93.795 240.65 92V92Z" fill="#FBB5AD"/>
<path id="Vector_27" d="M241 96C240.878 95.9146 240.743 95.8503 240.6 95.81L240.45 95.68C239.56 94.99 238.19 95.88 237.39 96.33C236.359 96.8755 235.388 97.5256 234.49 98.27C234.079 98.8283 233.786 99.4646 233.63 100.14C233.3 100.95 232.95 101.76 232.57 102.55C231.783 104.207 230.895 105.813 229.91 107.36C227.982 110.376 225.706 113.155 223.13 115.64C221.93 116.8 223.77 118.64 224.96 117.46L225.82 116.61C226 116.728 226.21 116.791 226.425 116.791C226.64 116.791 226.85 116.728 227.03 116.61C227.242 116.466 227.443 116.306 227.63 116.13L227.91 115.9C227.985 116.099 228.108 116.277 228.269 116.416C228.43 116.555 228.624 116.651 228.832 116.696C229.04 116.741 229.256 116.733 229.46 116.672C229.664 116.612 229.85 116.501 230 116.35L230.88 115.44C231.159 115.334 231.385 115.122 231.51 114.85C231.51 114.79 231.64 116.61 231.68 116.56C233.09 115.07 234.75 110.97 236.15 108.56C236.142 108.443 236.174 108.327 236.24 108.23C237.34 106.48 237.18 105.43 237.32 103.41C237.317 102.25 237.421 101.091 237.63 99.95L239.93 98.18C240.48 97.76 241.08 97.12 240.93 96.49C240.984 96.3325 241.007 96.1663 241 96Z" fill="#FBB5AD"/>
<path id="Vector_28" d="M249.49 128.38C241.33 130.78 239.94 129.86 236.07 129.74C232.2 129.62 228.07 124.2 228.07 124.2C228.07 124.2 227.07 112.1 219.89 121.57C214.51 128.64 212.45 149.11 211.75 159.02C214.43 161.15 217.98 161.95 221.33 162.45C223.541 162.819 225.778 163.006 228.02 163.01C229.399 162.999 230.761 162.703 232.02 162.14L235.84 144.39C245.6 145.18 253.11 139.39 253.11 139.39L249.49 128.38Z" fill="#FFC60B"/>
<path id="Vector_29" d="M232 113.85C232 113.85 237.25 123.92 232.07 126.72C226.89 129.52 222.82 124.86 222.38 123.65C221.94 122.44 222 113.11 232 113.85Z" fill="#FBB5AD"/>
<path id="Vector_30" d="M232.37 112.34C229.7 110.42 226.46 110.34 223.37 111.07C220.718 111.547 218.275 112.824 216.37 114.73C215.7 114.273 214.919 114.007 214.11 113.96C213.131 113.888 212.155 114.128 211.321 114.645C210.488 115.163 209.84 115.931 209.47 116.84C209.159 117.691 209.146 118.622 209.433 119.481C209.72 120.341 210.29 121.077 211.05 121.57C212.234 122.188 213.614 122.314 214.89 121.92V122.16C215.06 124.06 213.27 125.02 212.57 126.63C212.224 127.366 212.126 128.194 212.29 128.99C212.47 129.79 213.29 130.64 213.29 131.44C213.154 132.066 212.862 132.648 212.44 133.13C212.068 133.679 211.763 134.269 211.53 134.89C215.3 136.89 220.02 136.89 224.12 136.07C228.47 135.17 232.94 133.14 235.88 129.72C235.699 129.304 235.429 128.932 235.09 128.63C234.385 128.156 233.631 127.761 232.84 127.45C231.72 126.8 232.84 124.85 232.84 123.8C232.77 121.99 231.45 121.24 229.96 120.62C228.88 120.17 228.83 119.51 228.82 118.4C228.723 117.526 228.905 116.644 229.34 115.88C229.667 115.926 230 115.855 230.28 115.68C230.841 115.342 231.442 115.076 232.07 114.89C232.382 114.777 232.637 114.546 232.781 114.247C232.925 113.948 232.946 113.604 232.84 113.29C232.859 113.104 232.824 112.916 232.741 112.748C232.658 112.58 232.529 112.438 232.37 112.34Z" fill="#56403D"/>
<path id="Vector_31" d="M228.39 116.36C230.094 115.997 231.744 115.415 233.3 114.63C233.3 114.46 233.8 108.2 222.68 110.37C211.56 112.54 216.83 125.85 216.83 125.85" fill="#56403D"/>
<path id="Vector_32" d="M216.25 254.84C215.25 254.49 213.74 254.22 213.02 253.31C212.3 252.4 212.38 250.93 212.35 249.82C212.32 248.71 212.35 247.57 212.35 246.45C212.288 246.4 212.237 246.338 212.201 246.268C212.165 246.197 212.144 246.119 212.14 246.04C212.078 245.124 212.078 244.206 212.14 243.29L207.52 242.84C207.52 242.84 205.47 250.74 205.6 251.64C205.73 252.54 210.13 258.54 212.36 258.95C214.59 259.36 220.8 257.41 221.36 256.55V256.47C219.65 256 217.94 255.43 216.25 254.84Z" fill="#FBB5AD"/>
<path id="Vector_33" d="M248.18 238.38C246.66 238.08 240.35 239.1 240.35 239.1C240.35 239.1 239.46 233.95 239.59 233.7L233.02 234.16C233.02 234.16 232.19 243.72 232.19 244.98C232.19 247.3 235.06 247.98 235.69 247.98C236.141 247.828 236.582 247.648 237.01 247.44C236.772 246.248 236.648 245.036 236.64 243.82C236.64 243.26 236.79 242.87 237.32 242.67C238.32 242.3 240.09 242.83 241.08 243.02C242.26 243.24 243.42 243.52 244.59 243.73C247.18 242.36 249.36 241.06 249.59 240.52C250 239.14 250.52 238.83 248.18 238.38Z" fill="#FBB5AD"/>
<path id="Vector_34" d="M250.38 238.78L250.22 238.6C249.72 238.11 248.4 238.16 247.78 238.14C245.272 238.172 242.777 238.507 240.35 239.14C240.35 239.14 246.35 238.33 246.54 239.4C246.638 239.828 246.635 240.274 246.53 240.701C246.426 241.128 246.224 241.525 245.94 241.86C243.45 244.07 239.57 241.63 237.15 240.59L232.65 238.65L232.36 242.31C232.36 242.31 232.05 246.83 232.36 247.31C232.67 247.79 235.36 249.23 235.9 248.94C236.44 248.65 238.22 247.61 238.22 247.61L237.87 243.19C237.87 243.19 241.59 244.8 243.34 244.34C244.65 244 251.93 240.86 250.38 238.78Z" fill="#56403D"/>
<path id="Vector_35" d="M229.19 236.74C235.03 237.85 241.19 236.83 245.61 232.85C245.71 223.12 246.61 214.34 246.32 204.62C245.86 188.75 243.55 173.17 232.41 160.79L212.13 157.68C203.9 173.33 202.22 244.95 202.22 244.95C202.22 244.95 212.47 251.57 220.41 248.38L223.41 188.7C223.41 188.7 228.78 195.06 229.76 198.61C230.51 201.18 229.06 224.75 229.19 236.74Z" fill="#EB6F24"/>
<path id="Vector_36" d="M209.53 251.74C209.53 251.74 211.95 259.29 212.82 259.74C213.69 260.19 222.98 257.27 221.6 255.5C220.71 254.37 215.11 254.39 214.6 254.24C214.6 254.24 217.55 255.24 217.55 255.67C217.55 256.1 213.84 257.86 213.65 257.51C213.46 257.16 209.42 250.51 209.42 250.51L205.62 249.17L202.49 256.12L205.14 257.26C205.14 257.26 205.95 259.37 206.22 259.37C206.49 259.37 208.65 255.47 208.65 255.47C208.65 255.47 209.19 257.96 209.57 258.23C209.95 258.5 213.03 261.04 214.44 259.1L211.84 256.18" fill="#56403D"/>
<path id="Vector_37" d="M202.5 256.2L202.98 257.93L206.23 259.45V256.2L204.36 255.55" fill="#56403D"/>
<path id="Vector_38" d="M243.23 165.811C244.772 165.512 245.667 163.435 245.228 161.173C244.79 158.91 243.184 157.319 241.641 157.618C240.099 157.917 239.204 159.993 239.642 162.256C240.081 164.518 241.687 166.11 243.23 165.811Z" fill="#507282"/>
<path id="Vector_39" d="M253.151 171.399C254.696 171.101 255.595 169.022 255.158 166.755C254.721 164.488 253.114 162.892 251.568 163.19C250.023 163.488 249.124 165.567 249.561 167.834C249.998 170.101 251.605 171.697 253.151 171.399Z" fill="#507282"/>
<path id="Vector_40" d="M262.041 175.928C263.584 175.629 264.479 173.553 264.04 171.29C263.601 169.028 261.995 167.436 260.453 167.735C258.91 168.034 258.015 170.111 258.454 172.373C258.893 174.636 260.499 176.227 262.041 175.928Z" fill="#507282"/>
<path id="Vector_41" d="M271.257 180.904C272.799 180.605 273.694 178.529 273.255 176.267C272.817 174.004 271.211 172.413 269.668 172.712C268.126 173.011 267.231 175.087 267.669 177.35C268.108 179.612 269.714 181.203 271.257 180.904Z" fill="#507282"/>
</g>
</g>
</g>
</g>
<defs>
<linearGradient id="paint0_linear" x1="173.96" y1="263.23" x2="243.49" y2="186.27" gradientUnits="userSpaceOnUse">
<stop stop-color="white" stop-opacity="0"/>
<stop offset="0.99" stop-color="#006837"/>
</linearGradient>
<linearGradient id="paint1_linear" x1="127.45" y1="201.21" x2="138.23" y2="219.69" gradientUnits="userSpaceOnUse">
<stop stop-color="#D46A00"/>
<stop offset="1" stop-color="white"/>
</linearGradient>
<clipPath id="clip0">
<rect width="400" height="300" fill="white"/>
</clipPath>
</defs>
</svg>
